<?xml version="1.0" encoding="utf-8"?>
<?xml-stylesheet  href="../css/svg.css" type="text/css" ?>
<!-- Generator: Adobe Illustrator 18.0.0, SVG Export Plug-In . SVG Version: 6.00 Build 0)  -->
<!DOCTYPE svg PUBLIC "-//W3C//DTD SVG 1.1//EN" "http://www.w3.org/Graphics/SVG/1.1/DTD/svg11.dtd">
<svg version="1.1" id="owl" xmlns="http://www.w3.org/2000/svg" xmlns:xlink="http://www.w3.org/1999/xlink" x="0px" y="0px"
	 viewBox="0 0 640 960" enable-background="new 0 0 640 960" xml:space="preserve">
<g>
	<path stroke="#000000" stroke-width="8" stroke-miterlimit="10" d="M379,787l-51,6.7l4.4,135.2c22.8-0.6,44.5-2.8,64.6-6.3L379,787
		z"/>
	<path stroke="#000000" stroke-width="8" stroke-miterlimit="10" d="M451.5,787.7c-16.5-6.1-35.5-11-56.2-14.6l19.3,145.9
		c24.5-5.5,45.8-13.1,62.6-22.2L451.5,787.7z"/>
	<path stroke="#000000" stroke-width="8" stroke-miterlimit="10" d="M162.8,896.8c16.8,9.1,38.1,16.7,62.6,22.2l19.3-145.9
		c-20.8,3.5-39.8,8.5-56.2,14.6L162.8,896.8z"/>
	<path stroke="#000000" stroke-width="8" stroke-miterlimit="10" d="M243,922.6c20,3.5,41.8,5.7,64.6,6.3l4.4-135.2l-51-6.7
		L243,922.6z"/>
</g>
<path fill="#C7B299" stroke="#000000" stroke-width="8" stroke-miterlimit="10" d="M328,793.7l3.9,119.2c22.2-0.5,43.4-2.6,63-5.9
	L379,787L328,793.7z M166.2,882.6c16.7,8.6,37.5,15.7,61.3,20.9l17.3-130.4c-20.8,3.5-39.8,8.5-56.2,14.6L166.2,882.6z M451.5,787.7
	c-16.5-6.1-35.5-11-56.2-14.6l17.3,130.4c23.7-5.2,44.6-12.3,61.3-20.9L451.5,787.7z M245.1,906.9c19.6,3.3,40.8,5.4,63,5.9
	l3.9-119.2l-51-6.7L245.1,906.9z"/>
<path stroke="#000000" stroke-width="8" stroke-linejoin="round" stroke-miterlimit="10" d="M583,476c0,170.1-64,388-263,388
	S57,646.1,57,476s113.3-308,263-308S583,305.9,583,476z"/>
<path fill="#C7B299" stroke="#000000" stroke-width="8" stroke-linejoin="round" stroke-miterlimit="10" d="M65,476
	c0,170.1,56,388,255,388s255-217.9,255-388S469.7,168,320,168S65,305.9,65,476z"/>
<path fill="#998675" stroke="#000000" stroke-width="8" stroke-miterlimit="10" d="M579,262.1c0,124.3-107.1,241-259,241
	S61,386.4,61,262.1s107.1-217,259-217S579,137.9,579,262.1z"/>
<g id="XMLID_2_">
	<g>
		<path fill="#C7B299" d="M187,371.8c0,0-0.1,0-0.2,0c-60.5-6.2-95.8-52.9-95.8-109.6c0-56.7,35.3-103.5,96-109.6
			c4.5-0.5,9.1-0.7,13.9-0.7c69.1,0,109.9,49.4,109.9,110.3c0,60.9-40.8,110.3-109.9,110.3C196.2,372.5,191.6,372.2,187,371.8z"/>
		<path fill="#C7B299" d="M187.1,152.5c-0.1,0-0.1,0-0.2,0c0,0,0,0,0,0L187.1,152.5z"/>
		<path fill="#C7B299" d="M186.9,371.7c0,0,0.1,0,0.2,0C187,371.8,186.9,371.8,186.9,371.7C186.9,371.8,186.9,371.8,186.9,371.7z"/>
		<path fill="#C7B299" d="M187,371.8h-0.1c0,0,0,0,0,0C186.9,371.8,187,371.8,187,371.8z"/>
	</g>
	<g>
		<path fill="none" stroke="#000000" stroke-width="8" stroke-miterlimit="10" d="M186.9,371.7c-60.5-6.2-95.8-52.9-95.8-109.6
			c0-56.7,35.3-103.5,96-109.6c4.5-0.5,9.1-0.7,13.9-0.7c69.1,0,109.9,49.4,109.9,110.3c0,60.9-40.8,110.3-109.9,110.3
			c-4.8,0-9.4-0.2-14-0.7"/>
		<path fill="none" stroke="#000000" stroke-width="8" stroke-miterlimit="10" d="M187.1,371.8L187.1,371.8h-0.2c0,0,0,0,0,0
			c0,0,0,0,0,0C186.9,371.7,187,371.8,187.1,371.8"/>
		<path fill="none" stroke="#000000" stroke-width="8" stroke-miterlimit="10" d="M187.1,152.5c-0.1,0-0.1,0-0.2,0c0,0,0,0,0,0
			L187.1,152.5z"/>
	</g>
</g>
<path class="owleyes" fill="#F7931E" stroke="#000000" stroke-width="8" stroke-miterlimit="10" d="M278.2,247.5c0,38.2-21.8,60-60,60
	s-60-21.8-60-60s21.8-60,60-60S278.2,209.3,278.2,247.5z"/>
<circle cx="218.2" cy="247.5" r="20"/>
<circle fill="#FFFFFF" cx="210.2" cy="239.5" r="5"/>
<g id="XMLID_1_">
	<g>
		<path fill="#C7B299" d="M453,371.8c-4.5,0.5-9.2,0.7-13.9,0.7c-69.1,0-109.9-49.4-109.9-110.3c0-60.9,40.8-110.3,109.9-110.3
			c4.8,0,9.4,0.2,13.9,0.7c60.6,6.2,96,52.9,96,109.6c0,56.7-35.2,103.4-95.8,109.6C453.1,371.7,453,371.8,453,371.8z"/>
		<path fill="#C7B299" d="M453.1,152.5c-0.1,0-0.1,0-0.2,0L453.1,152.5C453.1,152.5,453.1,152.5,453.1,152.5z"/>
		<path fill="#C7B299" d="M453.1,371.7C453.1,371.7,453.1,371.7,453.1,371.7c-0.1,0-0.1,0-0.2,0C453,371.8,453.1,371.7,453.1,371.7z
			"/>
		<path fill="#C7B299" d="M453.1,371.7C453.1,371.8,453.1,371.8,453.1,371.7l-0.1,0C453,371.8,453,371.8,453.1,371.7z"/>
	</g>
	<g>
		<path fill="none" stroke="#000000" stroke-width="8" stroke-miterlimit="10" d="M453.1,371.7c60.5-6.2,95.8-52.9,95.8-109.6
			c0-56.7-35.3-103.5-96-109.6c-4.5-0.5-9.1-0.7-13.9-0.7c-69.1,0-109.9,49.4-109.9,110.3c0,60.9,40.8,110.3,109.9,110.3
			c4.8,0,9.4-0.2,13.9-0.7"/>
		<path fill="none" stroke="#000000" stroke-width="8" stroke-miterlimit="10" d="M452.9,371.8L452.9,371.8h0.2c0,0,0,0,0,0
			c0,0,0,0,0,0C453.1,371.7,453,371.8,452.9,371.8"/>
		<path fill="none" stroke="#000000" stroke-width="8" stroke-miterlimit="10" d="M452.9,152.5c0.1,0,0.1,0,0.2,0c0,0,0,0,0,0
			L452.9,152.5z"/>
	</g>
</g>
<g id="XMLID_3_">
	<g>
		<path fill="#F7931E" class="owleyes" d="M421.8,187.6c38.2,0,60,21.8,60,60c0,38.2-21.8,60-60,60c-38.2,0-60-21.8-60-60
			C361.8,209.3,383.6,187.6,421.8,187.6z"/>
	</g>
	<g>
		<path fill="none" stroke="#000000" stroke-width="8" stroke-miterlimit="10" d="M361.8,247.6c0,38.2,21.8,60,60,60
			c38.2,0,60-21.8,60-60c0-38.2-21.8-60-60-60C383.6,187.6,361.8,209.3,361.8,247.6z"/>
	</g>
</g>
<circle cx="421.8" cy="247.5" r="20"/>
<circle fill="#FFFFFF" cx="413.8" cy="239.5" r="5"/>
<path fill="#FFFFFF" stroke="#000000" stroke-width="8" stroke-miterlimit="10" d="M320,217"/>
<path fill="#A67C52" stroke="#000000" stroke-width="8" stroke-miterlimit="10" d="M439,66.9L439,66.9c-34.9-14-75.1-21.8-119-21.8
	c-43.9,0-84.1,7.8-119,21.8l0,0C187.9,53.8,61,31,61,45.1c0,1.9,86.9,79.2,115.7,95.9s133.2,76,143.3,76s114.6-59.3,143.3-76
	S579,47,579,45.1C579,31,452.1,53.8,439,66.9z"/>
<polygon fill="#FBB03B" stroke="#000000" stroke-width="8" stroke-linejoin="round" stroke-miterlimit="10" points="320,481.3 
	320,312 259.3,396.7 "/>
<polygon  fill="#F7931E" stroke="#000000" stroke-width="8" stroke-linejoin="round" stroke-miterlimit="10" points="320,481.3 
	320,312 380.7,396.7 "/>
<g>
	<path stroke="#000000" stroke-miterlimit="10" d="M320,557.1l-36.9-30c-1.7-1.4-2-3.9-0.6-5.6c1.4-1.7,3.9-2,5.6-0.6l31.8,25.9
		l31.8-25.9c1.7-1.4,4.2-1.1,5.6,0.6c1.4,1.7,1.1,4.2-0.6,5.6L320,557.1z"/>
</g>
<g>
	<path stroke="#000000" stroke-miterlimit="10" d="M217,547.1l-32-26.1c-1.7-1.4-2-3.9-0.6-5.6c1.4-1.7,3.9-2,5.6-0.6l27,21.9
		l27-21.9c1.7-1.4,4.2-1.1,5.6,0.6c1.4,1.7,1.1,4.2-0.6,5.6L217,547.1z"/>
</g>
<g>
	<path stroke="#000000" stroke-miterlimit="10" d="M122,539.1l-32-26.1c-1.7-1.4-2-3.9-0.6-5.6c1.4-1.7,3.9-2,5.6-0.6l27,21.9
		l27-21.9c1.7-1.4,4.2-1.1,5.6,0.6c1.4,1.7,1.1,4.2-0.6,5.6L122,539.1z"/>
</g>
<g>
	<path stroke="#000000" stroke-miterlimit="10" d="M407,547.1l-32-26.1c-1.7-1.4-2-3.9-0.6-5.6c1.4-1.7,3.9-2,5.6-0.6l27,21.9
		l27-21.9c1.7-1.4,4.2-1.1,5.6,0.6c1.4,1.7,1.1,4.2-0.6,5.6L407,547.1z"/>
</g>
<g>
	<path stroke="#000000" stroke-miterlimit="10" d="M502,539.1l-32-26.1c-1.7-1.4-2-3.9-0.6-5.6c1.4-1.7,3.9-2,5.6-0.6l27,21.9
		l27-21.9c1.7-1.4,4.2-1.1,5.6,0.6c1.4,1.7,1.1,4.2-0.6,5.6L502,539.1z"/>
</g>
<g>
	<path stroke="#000000" stroke-miterlimit="10" d="M320,624.6l-32-26.1c-1.7-1.4-2-3.9-0.6-5.6c1.4-1.7,3.9-2,5.6-0.6l27,21.9
		l27-21.9c1.7-1.4,4.2-1.1,5.6,0.6c1.4,1.7,1.1,4.2-0.6,5.6L320,624.6z"/>
</g>
<g>
	<path stroke="#000000" stroke-miterlimit="10" d="M225,616.6l-32-26.1c-1.7-1.4-2-3.9-0.6-5.6s3.9-2,5.6-0.6l27,21.9l27-21.9
		c1.7-1.4,4.2-1.1,5.6,0.6c1.4,1.7,1.1,4.2-0.6,5.6L225,616.6z"/>
</g>
<g>
	<path stroke="#000000" stroke-miterlimit="10" d="M130,608.6l-32-26.1c-1.7-1.4-2-3.9-0.6-5.6c1.4-1.7,3.9-2,5.6-0.6l27,21.9
		l27-21.9c1.7-1.4,4.2-1.1,5.6,0.6c1.4,1.7,1.1,4.2-0.6,5.6L130,608.6z"/>
</g>
<g>
	<path stroke="#000000" stroke-miterlimit="10" d="M415,616.6l-32-26.1c-1.7-1.4-2-3.9-0.6-5.6c1.4-1.7,3.9-2,5.6-0.6l27,21.9
		l27-21.9c1.7-1.4,4.2-1.1,5.6,0.6c1.4,1.7,1.1,4.2-0.6,5.6L415,616.6z"/>
</g>
<g>
	<path stroke="#000000" stroke-miterlimit="10" d="M510,608.6l-32-26.1c-1.7-1.4-2-3.9-0.6-5.6c1.4-1.7,3.9-2,5.6-0.6l27,21.9
		l27-21.9c1.7-1.4,4.2-1.1,5.6,0.6c1.4,1.7,1.1,4.2-0.6,5.6L510,608.6z"/>
</g>
<g>
	<path stroke="#000000" stroke-miterlimit="10" d="M320,692.2l-27.1-22.1c-1.7-1.4-2-3.9-0.6-5.6c1.4-1.7,3.9-2,5.6-0.6l22.1,17.9
		l22.1-17.9c1.7-1.4,4.2-1.1,5.6,0.6c1.4,1.7,1.1,4.2-0.6,5.6L320,692.2z"/>
</g>
<g>
	<path stroke="#000000" stroke-miterlimit="10" d="M233,684.2l-27.1-22.1c-1.7-1.4-2-3.9-0.6-5.6c1.4-1.7,3.9-2,5.6-0.6l22.1,17.9
		l22.1-17.9c1.7-1.4,4.2-1.1,5.6,0.6c1.4,1.7,1.1,4.2-0.6,5.6L233,684.2z"/>
</g>
<g>
	<path stroke="#000000" stroke-miterlimit="10" d="M138,676.2l-27.1-22.1c-1.7-1.4-2-3.9-0.6-5.6s3.9-2,5.6-0.6l22.1,17.9l22.1-17.9
		c1.7-1.4,4.2-1.1,5.6,0.6c1.4,1.7,1.1,4.2-0.6,5.6L138,676.2z"/>
</g>
<g>
	<path stroke="#000000" stroke-miterlimit="10" d="M415,684.2l-27.1-22.1c-1.7-1.4-2-3.9-0.6-5.6c1.4-1.7,3.9-2,5.6-0.6l22.1,17.9
		l22.1-17.9c1.7-1.4,4.2-1.1,5.6,0.6c1.4,1.7,1.1,4.2-0.6,5.6L415,684.2z"/>
</g>
<g>
	<path stroke="#000000" stroke-miterlimit="10" d="M502,676.2l-27.1-22.1c-1.7-1.4-2-3.9-0.6-5.6s3.9-2,5.6-0.6l22.1,17.9l22.1-17.9
		c1.7-1.4,4.2-1.1,5.6,0.6c1.4,1.7,1.1,4.2-0.6,5.6L502,676.2z"/>
</g>
<g>
	<path stroke="#000000" stroke-miterlimit="10" d="M320,761.7l-27.1-22.1c-1.7-1.4-2-3.9-0.6-5.6c1.4-1.7,3.9-2,5.6-0.6l22.1,17.9
		l22.1-17.9c1.7-1.4,4.2-1.1,5.6,0.6c1.4,1.7,1.1,4.2-0.6,5.6L320,761.7z"/>
</g>
<g>
	<path stroke="#000000" stroke-miterlimit="10" d="M233,753.7l-27.1-22.1c-1.7-1.4-2-3.9-0.6-5.6c1.4-1.7,3.9-2,5.6-0.6l22.1,17.9
		l22.1-17.9c1.7-1.4,4.2-1.1,5.6,0.6c1.4,1.7,1.1,4.2-0.6,5.6L233,753.7z"/>
</g>
<g>
	<path stroke="#000000" stroke-miterlimit="10" d="M152.5,737.7l-27.1-22.1c-1.7-1.4-2-3.9-0.6-5.6c1.4-1.7,3.9-2,5.6-0.6l22.1,17.9
		l22.1-17.9c1.7-1.4,4.2-1.1,5.6,0.6c1.4,1.7,1.1,4.2-0.6,5.6L152.5,737.7z"/>
</g>
<g>
	<path stroke="#000000" stroke-miterlimit="10" d="M487.5,737.7l-27.1-22.1c-1.7-1.4-2-3.9-0.6-5.6s3.9-2,5.6-0.6l22.1,17.9
		l22.1-17.9c1.7-1.4,4.2-1.1,5.6,0.6c1.4,1.7,1.1,4.2-0.6,5.6L487.5,737.7z"/>
</g>
<g>
	<path stroke="#000000" stroke-miterlimit="10" d="M407,753.7l-27.1-22.1c-1.7-1.4-2-3.9-0.6-5.6c1.4-1.7,3.9-2,5.6-0.6l22.1,17.9
		l22.1-17.9c1.7-1.4,4.2-1.1,5.6,0.6c1.4,1.7,1.1,4.2-0.6,5.6L407,753.7z"/>
</g>
<g>
	<path stroke="#000000" stroke-miterlimit="10" d="M320,831.2l-27.1-22.1c-1.7-1.4-2-3.9-0.6-5.6c1.4-1.7,3.9-2,5.6-0.6l22.1,17.9
		l22.1-17.9c1.7-1.4,4.2-1.1,5.6,0.6c1.4,1.7,1.1,4.2-0.6,5.6L320,831.2z"/>
</g>
<g>
	<path stroke="#000000" stroke-miterlimit="10" d="M233,815.2l-27.1-22.1c-1.7-1.4-2-3.9-0.6-5.6c1.4-1.7,3.9-2,5.6-0.6l22.1,17.9
		l22.1-17.9c1.7-1.4,4.2-1.1,5.6,0.6c1.4,1.7,1.1,4.2-0.6,5.6L233,815.2z"/>
</g>
<g>
	<path stroke="#000000" stroke-miterlimit="10" d="M407,815.2l-27.1-22.1c-1.7-1.4-2-3.9-0.6-5.6s3.9-2,5.6-0.6l22.1,17.9l22.1-17.9
		c1.7-1.4,4.2-1.1,5.6,0.6c1.4,1.7,1.1,4.2-0.6,5.6L407,815.2z"/>
</g>
<path fill="none" stroke="#000000" stroke-width="8" stroke-linecap="round" stroke-miterlimit="10" d="M573.9,217"/>
<path fill="none" stroke="#000000" stroke-width="8" stroke-linecap="round" stroke-miterlimit="10" d="M66.1,217"/>
<polyline fill="none" stroke="#000000" stroke-width="4" stroke-linecap="round" stroke-miterlimit="10" points="329.1,159 320,184 
	310.9,159 "/>
<polyline fill="none" stroke="#000000" stroke-width="4" stroke-linecap="round" stroke-miterlimit="10" points="329.1,103.8 
	320,128.8 310.9,103.8 "/>
<polyline fill="none" stroke="#000000" stroke-width="4" stroke-linecap="round" stroke-miterlimit="10" points="329.1,57.3 
	320,82.3 310.9,57.3 "/>
<polyline fill="none" stroke="#000000" stroke-width="4" stroke-linecap="round" stroke-miterlimit="10" points="384.7,67.4 
	368.5,88.5 367.3,61.9 "/>
<polyline fill="none" stroke="#000000" stroke-width="4" stroke-linecap="round" stroke-miterlimit="10" points="427.1,83.4 
	405.3,98.7 412.1,72.9 "/>
<polyline fill="none" stroke="#000000" stroke-width="4" stroke-linecap="round" stroke-miterlimit="10" points="468.3,111 
	442.9,119 457.2,96.5 "/>
<polyline fill="none" stroke="#000000" stroke-width="4" stroke-linecap="round" stroke-miterlimit="10" points="272.7,61.9 
	271.5,88.5 255.3,67.4 "/>
<polyline fill="none" stroke="#000000" stroke-width="4" stroke-linecap="round" stroke-miterlimit="10" points="227.9,72.9 
	234.7,98.7 212.9,83.4 "/>
<polyline fill="none" stroke="#000000" stroke-width="4" stroke-linecap="round" stroke-miterlimit="10" points="190.8,96.5 
	205.1,119 179.7,111 "/>
<polyline fill="none" stroke="#000000" stroke-width="4" stroke-linecap="round" stroke-miterlimit="10" points="371.7,115.9 
	353.7,135.5 354.9,109 "/>
<polyline fill="none" stroke="#000000" stroke-width="4" stroke-linecap="round" stroke-miterlimit="10" points="414.5,135.4 
	390.3,146.7 401.6,122.5 "/>
<polyline fill="none" stroke="#000000" stroke-width="4" stroke-linecap="round" stroke-miterlimit="10" points="238.4,122.5 
	249.7,146.7 225.5,135.4 "/>
<polyline fill="none" stroke="#000000" stroke-width="4" stroke-linecap="round" stroke-miterlimit="10" points="285.1,109 
	286.3,135.5 268.3,115.9 "/>
<polyline fill="none" stroke="#000000" stroke-width="4" stroke-linecap="round" stroke-miterlimit="10" points="378.8,171.1 
	354.6,182.4 365.9,158.2 "/>
<polyline fill="none" stroke="#000000" stroke-width="4" stroke-linecap="round" stroke-miterlimit="10" points="274.1,158.2 
	285.4,182.4 261.2,171.1 "/>
</svg>
