<?xml version="1.0" encoding="utf-8"?>
<?xml-stylesheet  href="../css/svg.css" type="text/css" ?>
<!-- Generator: Adobe Illustrator 18.0.0, SVG Export Plug-In . SVG Version: 6.00 Build 0)  -->
<!DOCTYPE svg PUBLIC "-//W3C//DTD SVG 1.1//EN" "http://www.w3.org/Graphics/SVG/1.1/DTD/svg11.dtd">
<svg version="1.1" id="logo" xmlns="http://www.w3.org/2000/svg" xmlns:xlink="http://www.w3.org/1999/xlink" x="0px" y="0px"
	 viewBox="0 0 1024 1024" enable-background="new 0 0 1024 1024" xml:space="preserve">
<g>
	<g>
		<g class="circle">
			<g class="one">
				<path fill="#FBB03B" d="M582.6,161.3H441.1c-15,0-24.1-16.1-16.8-28.9L494.8,9.9c7.3-12.8,26-12.8,33.6,0L599,132.4
					C606.7,144.8,597.6,161.3,582.6,161.3z"/>
				<path fill="#FBB03B" d="M397.9,172.6l-122.5,70.9c-12.8,7.3-28.9-1.8-28.9-16.8V85.2c0-15,16.1-24.1,28.9-16.8L397.9,139
					C410.7,146.7,410.7,165.3,397.9,172.6z"/>
				<path fill="#FBB03B" d="M243.6,275.4L173,397.9c-7.3,12.8-26,12.8-33.6,0L68.8,275.4c-7.3-12.8,1.8-28.9,16.8-28.9h141.2
					C241.7,246.5,250.9,262.6,243.6,275.4z"/>
				<path fill="#FBB03B" d="M161.3,441.4v141.5c0,15-16.1,24.1-28.9,16.8L9.5,528.8c-12.8-7.3-12.8-26,0-33.6L132,424.6
					C144.8,417.3,161.3,426.4,161.3,441.4z"/>
				<path fill="#FBB03B" d="M172.6,626.1l70.6,122.5c7.3,12.8-1.8,28.9-16.8,28.9H85.2c-15,0-24.1-16.1-16.8-28.9L139,626.1
					C146.7,613.3,165.3,613.3,172.6,626.1z"/>
				<path fill="#FBB03B" d="M275.4,780.4L397.9,851c12.8,7.3,12.8,26,0,33.6l-122.5,70.6c-12.8,7.3-28.9-1.8-28.9-16.8V797.3
					C246.5,782.3,262.6,773.1,275.4,780.4z"/>
				<path fill="#FBB03B" d="M441.4,862.7h141.5c15,0,24.1,16.1,16.8,28.9l-70.6,122.5c-7.3,12.8-26,12.8-33.6,0L425,891.6
					C417.3,879.2,426.4,862.7,441.4,862.7z"/>
				<path fill="#FBB03B" d="M626.1,851.4l122.5-70.6c12.8-7.3,28.9,1.8,28.9,16.8v141.5c0,15-16.1,24.1-28.9,16.8l-122.5-70.6
					C613.3,877.3,613.3,858.7,626.1,851.4z"/>
				<path fill="#FBB03B" d="M780.4,748.6L851,626.1c7.3-12.8,26-12.8,33.6,0l70.6,122.5c7.3,12.8-1.8,28.9-16.8,28.9H797.3
					C782.3,777.5,773.1,761.4,780.4,748.6z"/>
				<path fill="#FBB03B" d="M862.7,582.6V441.1c0-15,16.1-24.1,28.9-16.8l122.5,70.6c12.8,7.3,12.8,26,0,33.6L891.6,599
					C879.2,606.7,862.7,597.6,862.7,582.6z"/>
				<path fill="#FBB03B" d="M851.4,397.9l-70.6-122.5c-7.3-12.8,1.8-28.9,16.8-28.9h141.5c15,0,24.1,16.1,16.8,28.9l-70.6,122.5
					C877.3,410.7,858.7,410.7,851.4,397.9z"/>
				<path fill="#FBB03B" d="M748.6,243.6L626.1,173c-12.8-7.3-12.8-26,0-33.6l122.5-70.6c12.8-7.3,28.9,1.8,28.9,16.8v141.2
					C777.5,241.7,761.4,250.9,748.6,243.6z"/>
			</g>
			<g class="tow">
				<path fill="#FCEE21" d="M489.3,154.7l-136.4,36.6c-14.3,4-27.4-9.1-23.8-23.8l36.6-136.4c4-14.3,21.9-19,32.2-8.8l99.8,99.8
					C508.7,133.1,504,151,489.3,154.7z"/>
				<path fill="#FCEE21" d="M313.8,213.9l-99.8,99.8c-10.6,10.6-28.5,5.9-32.2-8.8l-36.6-136.4c-4-14.3,9.1-27.4,23.8-23.8
					l136.4,36.6C319.6,185.4,324.4,203.3,313.8,213.9z"/>
				<path fill="#FCEE21" d="M191.3,352.9l-36.6,136.4c-4,14.3-21.9,19-32.2,8.8L22.3,398.3c-10.6-10.6-5.9-28.5,8.8-32.2l136.4-36.6
					C182.1,325.5,195.3,338.7,191.3,352.9z"/>
				<path fill="#FCEE21" d="M154.7,534.7l36.6,136.4c4,14.3-9.1,27.4-23.8,23.8L31.1,658.3c-14.3-4-19-21.9-8.8-32.2l99.8-99.8
					C133.1,515.3,151,520,154.7,534.7z"/>
				<path fill="#FCEE21" d="M213.9,710.2l99.8,99.8c10.6,10.6,5.9,28.5-8.8,32.2l-136.4,36.6c-14.3,4-27.4-9.1-23.8-23.8l36.6-136.4
					C185.4,704.4,203.3,699.6,213.9,710.2z"/>
				<path fill="#FCEE21" d="M352.9,832.7l136.4,36.6c14.3,4,19,21.9,8.8,32.2l-99.8,99.8c-10.6,10.6-28.5,5.9-32.2-8.8l-36.6-136.4
					C325.5,841.9,338.7,828.7,352.9,832.7z"/>
				<path fill="#FCEE21" d="M534.7,869.3l136.4-36.6c14.3-4,27.4,9.1,23.8,23.8l-36.6,136.4c-4,14.3-21.9,19-32.2,8.8l-99.8-99.8
					C515.3,890.9,520,873,534.7,869.3z"/>
				<path fill="#FCEE21" d="M710.2,810.1l99.8-99.8c10.6-10.6,28.5-5.9,32.2,8.8l36.6,136.4c4,14.3-9.1,27.4-23.8,23.8l-136.4-36.6
					C704.4,838.6,699.6,820.7,710.2,810.1z"/>
				<path fill="#FCEE21" d="M832.7,671.1l36.6-136.4c4-14.3,21.9-19,32.2-8.8l99.8,99.8c10.6,10.6,5.9,28.5-8.8,32.2l-136.4,36.6
					C841.9,698.5,828.7,685.3,832.7,671.1z"/>
				<path fill="#FCEE21" d="M869.3,489.3l-36.6-136.4c-4-14.3,9.1-27.4,23.8-23.8l136.4,36.6c14.3,4,19,21.9,8.8,32.2l-99.8,99.8
					C890.9,508.7,873,504,869.3,489.3z"/>
				<path fill="#FCEE21" d="M810.1,313.8l-99.8-99.8c-10.6-10.6-5.9-28.5,8.8-32.2l136.4-36.6c14.3-4,27.4,9.1,23.8,23.8l-36.6,136.4
					C838.6,319.6,820.7,324.4,810.1,313.8z"/>
				<path fill="#FCEE21" d="M671.1,191.3l-136.4-36.6c-14.3-4-19-21.9-8.8-32.2l99.8-99.8c10.6-10.6,28.5-5.9,32.2,8.8l36.6,136.4
					C698.5,182.1,685.3,195.3,671.1,191.3z"/>
			</g>
		</g>
	</g>
	<circle fill="#F15A24" stroke="#C1272D" stroke-width="4.0089" stroke-miterlimit="10" cx="512" cy="512" r="355.8"/>
	<g class="three">
		
			<path class="zi" fill="#FFFF00" d="M325.1,305.4l56.3,56.7c1.1,1.1,0.4,3.3-1.5,3.3l-34.4-4.4c-0.7,0-1.5,0.4-1.8,0.7l-18.7,29.6
				c-1.1,1.5-3.3,0.7-3.3-1.1v-83.7C321.8,305,323.7,304.3,325.1,305.4z"/>
		
		
			<path class="zi" fill="#FFFF00" d="M484.2,305.4l56.7,56.7c1.1,1.1,0.4,3.3-1.5,3.3l-34.4-4.4c-0.7,0-1.5,0.4-1.8,0.7l-18.7,29.6
				c-1.1,1.5-3.3,0.7-3.3-1.1v-83.7C481.3,305,483.1,304.3,484.2,305.4z"/>
		
		<path class="zi" fill="#FFFF00" d="M643.3,305.4l56.3,56.7c1.1,1.1,0.4,3.3-1.5,3.3l-34.4-4.4c-0.7,0-1.5,0.4-1.8,0.7l-18.7,29.6
			c-1.1,1.5-3.3,0.7-3.3-1.1v-83.7C640,305,642.2,304.3,643.3,305.4z"/>
		<path class="zi" fill="#FFFF00" d="M325.1,467.4l56.7,56.7c1.1,1.1,0.4,3.3-1.5,3.3L346,523c-0.7,0-1.5,0.4-1.8,0.7l-18.7,29.6
			c-1.1,1.5-3.3,0.7-3.3-1.1v-83.4C321.8,467,323.7,466.3,325.1,467.4z"/>
		<path class="zi" fill="#FFFF00" d="M484.2,467.4l56.7,56.7c1.1,1.1,0.4,3.3-1.5,3.3l-34.4-4.4c-0.7,0-1.5,0.4-1.8,0.7l-18.7,29.6
			c-1.1,1.5-3.3,0.7-3.3-1.1v-83.4C481.3,467,483.1,466.3,484.2,467.4z"/>
		<path class="zi" fill="#FFFF00" d="M643.3,467.4l56.7,56.7c1.1,1.1,0.4,3.3-1.5,3.3l-34.4-4.4c-0.7,0-1.5,0.4-1.8,0.7l-18.7,29.6
			c-1.1,1.5-3.3,0.7-3.3-1.1v-83.4C640,467,642.2,466.3,643.3,467.4z"/>
		<path class="zi" fill="#FFFF00" d="M325.1,630.9l56.7,56.7c1.1,1.1,0.4,3.3-1.5,3.3l-34.4-4.4c-0.7,0-1.5,0.4-1.8,0.7l-18.7,29.6
			c-1.1,1.5-3.3,0.7-3.3-1.1v-83.4C321.8,630.5,323.7,629.8,325.1,630.9z"/>
		<path class="zi" fill="#FFFF00" d="M484.2,630.9l56.7,56.7c1.1,1.1,0.4,3.3-1.5,3.3l-34.4-4.4c-0.7,0-1.5,0.4-1.8,0.7l-18.7,29.6
			c-1.1,1.5-3.3,0.7-3.3-1.1v-83.4C481.3,630.5,483.1,629.8,484.2,630.9z"/>
		<path class="zi" fill="#FFFF00" d="M643.3,630.9l56.7,56.7c1.1,1.1,0.4,3.3-1.5,3.3l-34.4-4.4c-0.7,0-1.5,0.4-1.8,0.7l-18.7,29.6
			c-1.1,1.5-3.3,0.7-3.3-1.1v-83.4C640,630.5,642.2,629.8,643.3,630.9z"/>
	</g>
</g>
</svg>
