<?xml version="1.0" encoding="utf-8"?>
<!-- Generated by IcoMoon.io -->
<!DOCTYPE svg PUBLIC "-//W3C//DTD SVG 1.1//EN" "http://www.w3.org/Graphics/SVG/1.1/DTD/svg11.dtd">

<svg version="1.1" xmlns="http://www.w3.org/2000/svg" xmlns:xlink="http://www.w3.org/1999/xlink" width="416" height="32" viewBox="0 0 416 32">
<g transform="translate(0 0)">
	<path d="M31.147 14.838c-1.284-4.759-4.141-8.447-7.931-10.391-2.256-1.156-4.759-1.769-7.212-1.769s-4.956 0.612-7.213 1.769c-3.797 1.944-6.653 5.631-7.938 10.391-0.787 2.916-1.522 6.234 0.181 8.872 0.975 1.509 2.366 2.572 3.794 3.341 3.466 1.866 7.425 2.269 11.172 2.269s7.706-0.403 11.172-2.269c1.428-0.769 2.816-1.831 3.791-3.337 1.706-2.641 0.969-5.956 0.184-8.875zM29.837 21.191c-0.116 0.531-0.306 0.994-0.578 1.419-0.35 0.541-0.797 1.044-1.334 1.5-0.488 0.416-1.066 0.803-1.712 1.15-1.419 0.762-3.012 1.294-4.872 1.622-1.541 0.272-3.284 0.403-5.338 0.403s-3.8-0.131-5.338-0.403c-1.859-0.328-3.453-0.859-4.872-1.622-0.647-0.35-1.225-0.738-1.712-1.15-0.538-0.456-0.984-0.959-1.334-1.5-0.278-0.425-0.469-0.891-0.584-1.419-0.112-0.512-0.153-1.075-0.122-1.719 0.063-1.366 0.431-2.834 0.775-4.103 0.569-2.103 1.469-3.969 2.678-5.544 1.175-1.534 2.594-2.734 4.219-3.566 1.975-1.009 4.147-1.544 6.287-1.544s4.313 0.534 6.287 1.544c1.625 0.831 3.044 2.031 4.219 3.566 1.209 1.578 2.109 3.444 2.678 5.544 0.344 1.269 0.712 2.738 0.775 4.103 0.028 0.644-0.012 1.206-0.122 1.719z" fill="#FFFFFF"></path>
	<path d="M18.106 10.938c-0.128-0.088-0.256-0.175-0.387-0.262 1.384-0.491 2.869-0.831 4.416-1.016 0.556-0.066 0.956-0.572 0.891-1.128s-0.572-0.956-1.128-0.891c-2.344 0.278-4.534 0.878-6.472 1.766-1.938-0.887-4.128-1.491-6.472-1.766-0.556-0.066-1.063 0.331-1.128 0.891-0.066 0.556 0.331 1.063 0.891 1.128 1.547 0.184 3.034 0.525 4.416 1.016-0.131 0.084-0.259 0.172-0.387 0.262-2.681 1.881-4.378 4.356-4.906 7.153-0.103 0.55 0.259 1.081 0.809 1.188 0.063 0.012 0.128 0.019 0.191 0.019 0.478 0 0.906-0.341 0.997-0.828 0.428-2.266 1.838-4.294 4.081-5.869 0.472-0.331 0.978-0.641 1.512-0.925 0.534 0.284 1.038 0.591 1.512 0.925 2.241 1.572 3.653 3.603 4.081 5.869 0.091 0.488 0.519 0.828 0.997 0.828 0.063 0 0.125-0.006 0.191-0.019 0.55-0.103 0.913-0.634 0.809-1.188-0.531-2.797-2.228-5.272-4.912-7.153z" fill="#FFFFFF"></path>
</g>
<g transform="translate(48 0)">
	<path d="M31.147 14.838c-1.284-4.759-4.141-8.447-7.931-10.391-2.256-1.156-4.759-1.769-7.212-1.769s-4.956 0.612-7.213 1.769c-3.797 1.944-6.653 5.631-7.938 10.391-0.787 2.916-1.522 6.234 0.181 8.872 0.975 1.509 2.366 2.572 3.794 3.341 3.466 1.866 7.425 2.269 11.172 2.269s7.706-0.403 11.172-2.269c1.428-0.769 2.816-1.831 3.791-3.337 1.706-2.641 0.969-5.956 0.184-8.875zM22.191 19.2c-0.059 0.012-0.116 0.016-0.175 0.016-0.444 0-0.837-0.316-0.922-0.766-0.538-2.847-2.6-5.259-5.666-6.875-3.066 1.616-5.131 4.031-5.666 6.875-0.084 0.45-0.478 0.766-0.922 0.766-0.056 0-0.116-0.006-0.175-0.016-0.509-0.097-0.844-0.587-0.75-1.097 0.566-3.006 2.509-5.597 5.4-7.459-1.397-0.503-2.934-0.866-4.588-1.059-0.516-0.063-0.884-0.528-0.822-1.044s0.537-0.881 1.044-0.822c2.391 0.281 4.575 0.894 6.478 1.772 1.903-0.875 4.088-1.488 6.481-1.772 0.506-0.056 0.981 0.306 1.044 0.822s-0.306 0.981-0.822 1.044c-1.65 0.194-3.191 0.556-4.588 1.063 2.887 1.866 4.831 4.453 5.4 7.459 0.091 0.506-0.244 1-0.753 1.094z" fill="#FFFFFF"></path>
</g>
<g transform="translate(96 0)">
	<path d="M15.856 0c-8.722 0.025-15.866 7.269-15.856 16.078 0.009 8.728 7.269 15.941 16.025 15.922 8.797-0.019 15.981-7.194 15.975-15.95-0.006-8.959-7.166-16.075-16.144-16.050zM16.078 11.756c2.341 0.022 4.197 1.925 4.184 4.287-0.012 2.35-1.969 4.238-4.353 4.2-2.322-0.034-4.162-1.962-4.138-4.334 0.025-2.341 1.928-4.175 4.306-4.153zM26.541 27.034c-3.003 2.6-6.459 3.962-11.231 3.994-5.328-0.209-9.934-2.931-13.022-8.238-0.384-0.659-0.209-1.153 0.444-1.881 0.472-0.525 1.081-0.356 1.528 0.031 0.737 0.641 1.444 1.334 2.081 2.072 1.041 1.209 1.994 2.497 3.034 3.709 0.444 0.516 0.969 0.988 1.534 1.366 1.006 0.672 1.891 0.45 2.472-0.609 0.316-0.575 0.472-1.231 0.734-1.837 0.25-0.581 0.491-1.181 0.834-1.709 0.387-0.597 0.991-0.694 1.625-0.375 0.694 0.347 1.269 0.797 1.563 1.578 0.25 0.663 0.584 1.303 0.956 1.903 0.559 0.903 1.262 1.725 2.459 1.563 1.231-0.166 2.166-0.903 2.575-2.059 0.269-0.762 0.253-1.631 0.328-2.453 0.041-0.438-0.053-0.891 0.016-1.322 0.091-0.578 0.366-1.091 1.006-1.234 0.666-0.15 1.144 0.178 1.494 0.709 0.569 0.869 0.594 1.847 0.553 2.841-0.034 0.809-0.356 1.409-0.984 1.953z" fill="#FFFFFF"></path>
</g>
<g transform="translate(144 0)">
	<path d="M15.863-0.006c-8.756 0.025-15.872 7.241-15.863 16.081 0.009 8.784 7.184 15.931 15.994 15.931h0.034c8.816-0.019 15.981-7.178 15.975-15.959-0.009-9.003-7.075-16.053-16.141-16.053zM26.744 24.959c0.031-0.141 0.050-0.291 0.056-0.447 0.041-0.931 0.012-1.85-0.519-2.663-0.325-0.5-0.775-0.806-1.397-0.666-0.6 0.134-0.856 0.613-0.944 1.156-0.066 0.403 0.022 0.828-0.016 1.238-0.072 0.772-0.056 1.587-0.309 2.3-0.384 1.084-1.262 1.775-2.416 1.928-1.122 0.15-1.781-0.619-2.306-1.466-0.347-0.559-0.659-1.159-0.894-1.778-0.275-0.731-0.816-1.153-1.462-1.478-0.594-0.3-1.159-0.209-1.522 0.353-0.322 0.497-0.547 1.056-0.781 1.603-0.244 0.569-0.394 1.184-0.688 1.725-0.544 0.994-1.372 1.203-2.316 0.572-0.528-0.353-1.022-0.797-1.438-1.281-0.975-1.134-1.866-2.341-2.844-3.475-0.597-0.694-1.259-1.341-1.95-1.944-0.419-0.363-0.991-0.522-1.431-0.031-0.241 0.269-0.413 0.503-0.509 0.728-0.669-1.622-1.038-3.397-1.041-5.256-0.009-7.731 6.206-14.041 13.894-14.063 7.884 0 14.066 6.166 14.072 14.034 0 3.381-1.219 6.491-3.241 8.909z" fill="#FFFFFF"></path>
	<path d="M16.084 11.016h-0.050c-2.778 0-4.975 2.15-5.003 4.891-0.028 2.762 2.156 5.041 4.869 5.081h0.078c2.756 0 5.013-2.216 5.025-4.941 0.016-2.75-2.191-5.006-4.919-5.031zM15.934 18.972c-0.003 0-0.003 0 0 0-1.634-0.025-2.9-1.363-2.884-3.044 0.016-1.625 1.328-2.897 2.984-2.897h0.031c1.647 0.016 2.931 1.334 2.922 3.006-0.009 1.619-1.356 2.934-3.053 2.934z" fill="#FFFFFF"></path>
</g>
<g transform="translate(192 0)">
	<path d="M15.941 4.853c-6.141 0.022-11.103 5.022-11.078 11.162 0.022 6.141 5.022 11.103 11.162 11.078 6.141-0.022 11.103-5.022 11.078-11.162-0.022-6.141-5.022-11.103-11.162-11.078zM19 12.494c0.163-0.241 0.491-0.306 0.731-0.144s0.306 0.488 0.147 0.728c-0.022 0.034-0.422 0.678-0.272 1.688 0.044 0.287-0.156 0.556-0.444 0.597-0.025 0.003-0.050 0.006-0.075 0.006-0.259 0-0.484-0.188-0.522-0.45-0.216-1.438 0.406-2.384 0.434-2.425zM13.463 11.541c0.162-0.241 0.491-0.306 0.731-0.144s0.306 0.488 0.147 0.728c-0.022 0.034-0.422 0.675-0.272 1.688 0.044 0.287-0.156 0.556-0.444 0.597-0.025 0.003-0.050 0.006-0.075 0.006-0.259 0-0.484-0.188-0.522-0.45-0.219-1.441 0.406-2.388 0.434-2.425zM22.928 17.45c-0.591 3.422-3.569 5.847-6.928 5.859-0.406 0-0.816-0.031-1.231-0.103-1.859-0.322-3.481-1.347-4.569-2.887s-1.509-3.413-1.191-5.272c0.050-0.287 0.322-0.478 0.609-0.431 0.287 0.050 0.478 0.322 0.431 0.609-0.272 1.581 0.088 3.175 1.012 4.484s2.306 2.181 3.887 2.456c3.262 0.563 6.378-1.634 6.941-4.9 0.050-0.288 0.322-0.478 0.609-0.431 0.284 0.056 0.478 0.328 0.428 0.616z" fill="#FFFFFF"></path>
	<path d="M18.097 3.694l-2.15-3.694-2.119 3.7c0.684-0.119 1.387-0.188 2.106-0.191 0.738 0 1.459 0.066 2.163 0.184z" fill="#FFFFFF"></path>
	<path d="M13.228 3.828l-3.4-2.591-0.541 4.231c0.588-0.372 1.213-0.703 1.875-0.981 0.678-0.284 1.372-0.5 2.066-0.659z" fill="#FFFFFF"></path>
	<path d="M7.125 7.216c0.519-0.525 1.075-0.987 1.659-1.4l-4.134-1.091 1.119 4.116c0.4-0.569 0.85-1.116 1.356-1.625z" fill="#FFFFFF"></path>
	<path d="M4.438 11.281c0.281-0.681 0.616-1.325 0.997-1.928l-4.237 0.575 2.609 3.372c0.153-0.678 0.359-1.353 0.631-2.019z" fill="#FFFFFF"></path>
	<path d="M3.513 16.066c-0.003-0.738 0.063-1.459 0.181-2.162l-3.694 2.15 3.7 2.119c-0.119-0.684-0.184-1.387-0.188-2.106z" fill="#FFFFFF"></path>
	<path d="M4.487 20.837c-0.284-0.681-0.5-1.372-0.659-2.069l-2.591 3.403 4.231 0.541c-0.372-0.587-0.703-1.209-0.981-1.875z" fill="#FFFFFF"></path>
	<path d="M5.816 23.219l-1.091 4.134 4.116-1.119c-0.569-0.4-1.112-0.85-1.625-1.356-0.525-0.522-0.987-1.078-1.4-1.659z" fill="#FFFFFF"></path>
	<path d="M9.353 26.566l0.575 4.238 3.372-2.609c-0.678-0.153-1.353-0.359-2.019-0.631-0.684-0.281-1.325-0.616-1.928-0.997z" fill="#FFFFFF"></path>
	<path d="M13.903 28.306l2.153 3.694 2.119-3.7c-0.684 0.119-1.387 0.188-2.106 0.191-0.741 0-1.463-0.066-2.166-0.184z" fill="#FFFFFF"></path>
	<path d="M18.772 28.172l3.403 2.591 0.538-4.231c-0.587 0.372-1.212 0.703-1.875 0.981-0.678 0.284-1.372 0.5-2.066 0.659z" fill="#FFFFFF"></path>
	<path d="M24.875 24.784c-0.519 0.525-1.075 0.988-1.659 1.4l4.134 1.091-1.119-4.116c-0.4 0.569-0.85 1.116-1.356 1.625z" fill="#FFFFFF"></path>
	<path d="M27.563 20.719c-0.281 0.681-0.616 1.325-0.997 1.928l4.238-0.575-2.609-3.372c-0.153 0.678-0.359 1.353-0.631 2.019z" fill="#FFFFFF"></path>
	<path d="M32 15.947l-3.7-2.119c0.119 0.684 0.188 1.387 0.191 2.106 0.003 0.738-0.063 1.459-0.181 2.163l3.691-2.15z" fill="#FFFFFF"></path>
	<path d="M27.512 11.162c0.284 0.681 0.5 1.372 0.659 2.069l2.591-3.403-4.231-0.541c0.372 0.588 0.703 1.209 0.981 1.875z" fill="#FFFFFF"></path>
	<path d="M26.184 8.781l1.091-4.134-4.116 1.119c0.569 0.4 1.113 0.85 1.625 1.356 0.525 0.522 0.988 1.078 1.4 1.659z" fill="#FFFFFF"></path>
	<path d="M22.647 5.434l-0.575-4.237-3.372 2.609c0.678 0.153 1.353 0.359 2.019 0.631 0.684 0.281 1.325 0.616 1.928 0.997z" fill="#FFFFFF"></path>
</g>
<g transform="translate(240 0)">
	<path d="M15.941 4.775c-2.872 0-5.594 1.147-7.669 3.231-2.119 2.128-3.328 5.056-3.316 8.034 0.025 6.166 4.969 11.181 11.028 11.181h0.059c6.275-0.503 10.991-5.347 10.969-11.266-0.025-6.162-4.972-11.181-11.072-11.181zM25.1 15.853c0.009 2.497-0.956 4.906-2.647 6.609-1.822 1.841-4.106 2.85-6.472 2.85-5.006 0-9.097-4.125-9.116-9.194-0.009-2.488 0.956-4.894 2.647-6.597 1.816-1.828 4.1-2.834 6.434-2.834h0.037c5.006 0 9.097 4.112 9.116 9.166z" fill="#FFFFFF"></path>
	<path d="M18.991 15.762v0c0.097 0 0.159-0.050 0.2-0.094 0.356-0.103 0.6-0.478 0.541-0.866-0.134-0.9 0.225-1.488 0.228-1.488 0.228-0.344 0.134-0.813-0.206-1.044-0.369-0.247-0.822-0.128-1.041 0.194-0.006 0.009-0.688 1.066-0.466 2.591 0.050 0.338 0.35 0.706 0.744 0.706z" fill="#FFFFFF"></path>
	<path d="M13.616 14.806v0c0.088 0 0.147-0.041 0.184-0.075 0.169-0.044 0.316-0.147 0.422-0.297 0.116-0.166 0.166-0.369 0.137-0.566-0.131-0.903 0.225-1.481 0.228-1.484 0.228-0.344 0.134-0.813-0.206-1.044-0.359-0.241-0.822-0.128-1.041 0.197-0.006 0.009-0.688 1.047-0.463 2.575 0.053 0.391 0.381 0.694 0.738 0.694z" fill="#FFFFFF"></path>
	<path d="M22.219 16.578c-0.366 0-0.678 0.259-0.741 0.619-0.462 2.688-2.778 4.637-5.506 4.637-0.313 0-0.634-0.028-0.95-0.081-1.472-0.253-2.756-1.066-3.616-2.284-0.863-1.219-1.194-2.703-0.941-4.172 0.034-0.197-0.012-0.397-0.125-0.559-0.116-0.162-0.287-0.272-0.484-0.306-0.412-0.072-0.797 0.209-0.866 0.613-0.322 1.866 0.103 3.747 1.194 5.291 1.109 1.575 2.741 2.616 4.609 2.938 0.387 0.066 0.787 0.134 1.184 0.134h0.025c3.384 0 6.375-2.544 6.956-5.919 0.072-0.409-0.209-0.816-0.625-0.887-0.028-0.012-0.069-0.022-0.116-0.022z" fill="#FFFFFF"></path>
	<path d="M27.906 18.328l4.094-2.384-4.106-2.35 2.869-3.769-4.694-0.6 1.209-4.578-4.566 1.241-0.641-4.691-3.744 2.897-2.381-4.094-2.353 4.106-3.766-2.869-0.6 4.694-4.578-1.209 1.244 4.566-4.697 0.641 2.897 3.744-4.094 2.381 4.106 2.353-2.869 3.766 4.694 0.6-1.209 4.578 4.566-1.244 0.634 4.694 3.75-2.894 2.384 4.094 2.35-4.106 3.769 2.869 0.6-4.694 4.578 1.206-1.241-4.566 4.694-0.637-2.9-3.744zM22.528 25.925l-0.141 0.091c-0.572 0.363-1.172 0.678-1.784 0.934-0.625 0.262-1.288 0.472-1.966 0.625l-0.425 0.097-0.144 0.025c-0.669 0.116-1.344 0.178-2.050 0.181-0.659 0-1.338-0.059-2.012-0.175l-0.412-0.072-0.159-0.034c-0.666-0.15-1.313-0.35-1.922-0.6-0.628-0.256-1.244-0.575-1.834-0.947l-0.366-0.231-0.122-0.084c-0.556-0.391-1.078-0.825-1.544-1.291-0.481-0.475-0.928-1.006-1.331-1.578l-0.247-0.35-0.081-0.128c-0.366-0.575-0.678-1.175-0.934-1.784-0.263-0.625-0.472-1.284-0.628-1.966l-0.094-0.413-0.028-0.156c-0.116-0.669-0.178-1.344-0.181-2.006-0.003-0.678 0.056-1.369 0.175-2.056l0.072-0.422 0.034-0.15c0.147-0.662 0.35-1.309 0.6-1.922 0.256-0.628 0.575-1.244 0.947-1.834l0.231-0.366 0.084-0.122c0.391-0.556 0.825-1.075 1.291-1.544 0.475-0.478 1.006-0.928 1.578-1.331l0.344-0.244 0.134-0.084c0.575-0.366 1.175-0.678 1.784-0.934 0.625-0.263 1.284-0.472 1.966-0.628l0.412-0.094 0.156-0.028c0.669-0.116 1.344-0.178 2.047-0.181 0.663 0 1.341 0.059 2.016 0.175l0.425 0.072 0.147 0.034c0.663 0.147 1.309 0.35 1.922 0.6 0.625 0.256 1.244 0.575 1.834 0.947l0.363 0.228 0.125 0.088c0.556 0.391 1.075 0.825 1.544 1.291 0.481 0.475 0.928 1.006 1.331 1.578l0.25 0.353 0.081 0.125c0.363 0.575 0.678 1.175 0.934 1.784 0.259 0.622 0.472 1.284 0.625 1.966l0.097 0.422 0.025 0.147c0.116 0.669 0.178 1.344 0.181 2.006 0.003 0.675-0.056 1.366-0.175 2.056l-0.072 0.413-0.034 0.159c-0.15 0.666-0.35 1.313-0.6 1.922-0.256 0.625-0.575 1.244-0.947 1.834l-0.225 0.356-0.094 0.131c-0.391 0.556-0.825 1.075-1.291 1.544-0.475 0.478-1.006 0.928-1.578 1.331l-0.334 0.241z" fill="#FFFFFF"></path>
</g>
<g transform="translate(288 0)">
	<path d="M23.706 4.319c-0.297 0-0.587 0.028-0.875 0.066-1.191-2.584-3.797-4.384-6.831-4.384s-5.641 1.8-6.831 4.388c-0.287-0.037-0.578-0.066-0.875-0.066-3.553 0-6.434 2.881-6.434 6.434 0 2.797 1.788 5.169 4.278 6.056l0.859 12.897c0.084 1.291 1.156 2.291 2.45 2.291h12.85c1.294 0 2.363-1.003 2.45-2.291l0.853-12.8c2.631-0.806 4.547-3.256 4.547-6.153-0.006-3.556-2.887-6.438-6.441-6.438zM12.894 27.044l-0.044 0.003c-0.622 0.041-1.166-0.434-1.206-1.056l-0.522-7.928c-0.041-0.622 0.434-1.166 1.056-1.206l0.044-0.003c0.622-0.041 1.166 0.434 1.206 1.056l0.522 7.931c0.041 0.622-0.434 1.163-1.056 1.203zM20.356 25.991c-0.041 0.622-0.584 1.097-1.206 1.056l-0.044-0.003c-0.622-0.041-1.097-0.584-1.056-1.206l0.522-7.931c0.041-0.622 0.584-1.097 1.206-1.056l0.044 0.003c0.622 0.041 1.097 0.584 1.056 1.206l-0.522 7.931z" fill="#FFFFFF"></path>
</g>
<g transform="translate(336 0)">
	<path d="M16 2.134c2.094 0 4.016 1.234 4.894 3.144 0.35 0.763 1.113 1.241 1.938 1.241 0.097 0 0.191-0.006 0.288-0.019 0.234-0.031 0.422-0.047 0.587-0.047 2.372 0 4.303 1.931 4.303 4.303 0 1.903-1.222 3.556-3.038 4.113-0.847 0.259-1.444 1.016-1.503 1.897l-0.853 12.8c-0.012 0.169-0.153 0.3-0.322 0.3h-12.85c-0.169 0-0.309-0.131-0.322-0.3l-0.859-12.897c-0.056-0.847-0.612-1.581-1.412-1.869-1.709-0.609-2.859-2.237-2.859-4.047 0-2.372 1.931-4.303 4.303-4.303 0.166 0 0.353 0.016 0.588 0.047 0.097 0.013 0.194 0.019 0.287 0.019 0.825 0 1.584-0.478 1.938-1.241 0.878-1.906 2.8-3.141 4.894-3.141zM16 0c-3.034 0-5.641 1.8-6.831 4.388-0.287-0.037-0.578-0.066-0.875-0.066-3.553 0-6.434 2.881-6.434 6.434 0 2.797 1.788 5.169 4.278 6.056l0.859 12.897c0.084 1.291 1.156 2.291 2.45 2.291h12.85c1.294 0 2.363-1.003 2.45-2.291l0.853-12.8c2.631-0.806 4.547-3.256 4.547-6.153 0-3.553-2.881-6.434-6.434-6.434-0.297 0-0.587 0.028-0.875 0.066-1.197-2.587-3.803-4.388-6.838-4.388v0z" fill="#FFFFFF"></path>
	<path d="M13.959 26.975l-2.175 0.144c-0.037 0.003-0.069-0.025-0.072-0.063l-0.662-10.059c-0.003-0.038 0.025-0.069 0.063-0.072l2.175-0.144c0.037-0.003 0.069 0.025 0.072 0.063l0.662 10.059c0 0.038-0.025 0.069-0.063 0.072z" fill="#FFFFFF"></path>
	<path d="M18.041 26.975l2.175 0.144c0.038 0.003 0.069-0.025 0.072-0.063l0.663-10.059c0.003-0.038-0.025-0.069-0.063-0.072l-2.175-0.144c-0.038-0.003-0.069 0.025-0.072 0.063l-0.663 10.059c0 0.038 0.025 0.069 0.063 0.072z" fill="#FFFFFF"></path>
</g>

</svg>
