<?xml version="1.0" encoding="utf-8"?>
<?xml-stylesheet  href="../css/svg.css" type="text/css" ?>
<!-- Generator: Adobe Illustrator 18.0.0, SVG Export Plug-In . SVG Version: 6.00 Build 0)  -->
<!DOCTYPE svg PUBLIC "-//W3C//DTD SVG 1.1//EN" "http://www.w3.org/Graphics/SVG/1.1/DTD/svg11.dtd">
<svg version="1.1" id="图层_1" xmlns="http://www.w3.org/2000/svg" xmlns:xlink="http://www.w3.org/1999/xlink" x="0px" y="0px"
	 viewBox="0 0 1024 1024" enable-background="new 0 0 1024 1024" xml:space="preserve">

<g>
	<g>
		<g>
			<g>
				<path fill="#FBB03B" d="M901.6,525.9c-2-2-4.4-3.5-6.8-4.4c0.2-6.3,0.2-12.6,0-18.9c2.4-0.9,4.8-2.4,6.8-4.4l100-100
					c10.5-10.5,5.7-28.5-8.7-32.3l-136.6-36.6c-2.9-0.8-5.7-0.9-8.3-0.4c-3-5.5-6.1-10.9-9.4-16.2c1.7-2.1,3.1-4.5,3.8-7.4
					L879,168.6c3.9-14.4-9.3-27.5-23.7-23.7l-136.6,36.6c-2.8,0.7-5.2,2-7.2,3.7c-5.4-3.3-10.8-6.4-16.3-9.4
					c0.4-2.6,0.3-5.3-0.4-8.1L658.2,31.1c-3.8-14.4-21.8-19.2-32.3-8.7l-100,100c-2,2-3.5,4.4-4.4,6.8c-6.3-0.2-12.6-0.2-18.9,0
					c-0.9-2.4-2.4-4.8-4.4-6.8l-100-100c-10.5-10.5-28.5-5.7-32.3,8.7l-36.6,136.6c-0.8,2.9-0.9,5.7-0.4,8.3
					c-5.5,3-10.9,6.1-16.2,9.4c-2.1-1.7-4.5-3.1-7.4-3.8L168.6,145c-14.4-3.9-27.5,9.3-23.7,23.7l36.6,136.6c0.7,2.8,2,5.2,3.7,7.2
					c-3.3,5.4-6.4,10.8-9.4,16.3c-2.6-0.4-5.3-0.3-8.1,0.4L31.1,365.8c-14.4,3.9-19.2,21.8-8.7,32.3l100,100c2,2,4.4,3.5,6.8,4.4
					c-0.2,6.3-0.2,12.6,0,18.9c-2.4,0.9-4.8,2.4-6.8,4.4l-100,100c-10.5,10.5-5.7,28.5,8.7,32.3l136.6,36.6c2.9,0.8,5.7,0.9,8.3,0.4
					c3,5.5,6.1,10.9,9.4,16.2c-1.7,2.1-3.1,4.5-3.8,7.4L145,855.4c-3.9,14.4,9.3,27.5,23.7,23.7l136.6-36.6c2.8-0.7,5.2-2,7.2-3.7
					c5.4,3.3,10.8,6.4,16.3,9.4c-0.4,2.6-0.3,5.3,0.4,8.1l36.6,136.6c3.9,14.4,21.8,19.2,32.3,8.7l100-100c2-2,3.5-4.4,4.4-6.8
					c6.3,0.2,12.6,0.2,18.9,0c0.9,2.4,2.4,4.8,4.4,6.8l100,100c10.5,10.5,28.5,5.7,32.3-8.7l36.6-136.6c0.8-2.9,0.9-5.7,0.4-8.3
					c5.5-3,10.9-6.1,16.2-9.4c2.1,1.7,4.5,3.1,7.4,3.8L855.4,879c14.4,3.9,27.5-9.3,23.7-23.7l-36.6-136.6c-0.7-2.8-2-5.2-3.7-7.2
					c3.3-5.4,6.4-10.8,9.4-16.3c2.6,0.4,5.3,0.3,8.1-0.4l136.6-36.6c14.4-3.9,19.2-21.8,8.7-32.3L901.6,525.9z M468.2,863.5
					l-94-25.2c-27.5-11.6-53-26.4-76-43.9l-67.8-67.8c-18.2-24-33.4-50.2-45-78L160.5,556c-3.6-28.7-3.8-58.2,0-87.8l25.2-93.9
					c11.6-27.5,26.4-53,43.9-76l67.8-67.8c24-18.2,50.2-33.4,78-45l92.6-24.8c28.7-3.6,58.2-3.8,87.8,0l94,25.2
					c27.5,11.6,53,26.4,76,43.9l67.8,67.8c18.2,24,33.4,50.2,45,78l24.8,92.6c3.6,28.7,3.8,58.2,0,87.8l-25.2,94
					c-11.6,27.5-26.4,53-43.9,76l-67.8,67.8c-24,18.2-50.2,33.4-78,45L556,863.5C527.3,867.1,497.8,867.2,468.2,863.5z"/>
			</g>
		</g>
	</g>
	<g>
		<path fill="#FCEE21" d="M1014.3,495.3l-122.5-70.7c-1.8-1-3.6-1.7-5.4-2.1c-1.6-6.8-3.4-13.5-5.4-20.2c1.4-1.3,2.6-2.7,3.6-4.5
			l70.7-122.5c7.4-12.9-1.9-29-16.7-29H797.3c-2.1,0-4,0.3-5.9,0.9c-4.8-5-9.6-9.9-14.7-14.7c0.6-1.8,0.9-3.8,0.9-5.9V85.3
			c0-14.9-16.1-24.2-29-16.7l-122.5,70.7c-1.8,1-3.2,2.3-4.5,3.6c-6.6-2-13.4-3.8-20.2-5.4c-0.4-1.8-1.1-3.7-2.1-5.4L528.7,9.7
			c-7.4-12.9-26-12.9-33.5,0l-70.7,122.5c-1,1.8-1.7,3.6-2.1,5.4c-6.8,1.6-13.5,3.4-20.2,5.4c-1.3-1.4-2.7-2.6-4.5-3.6L275.3,68.6
			c-12.9-7.4-29,1.9-29,16.7v141.4c0,2.1,0.3,4,0.9,5.9c-5,4.8-9.9,9.6-14.7,14.7c-1.8-0.6-3.8-0.9-5.9-0.9H85.3
			c-14.9,0-24.2,16.1-16.7,29l70.7,122.5c1,1.8,2.3,3.2,3.6,4.5c-2,6.6-3.8,13.4-5.4,20.2c-1.8,0.4-3.7,1.1-5.4,2.1L9.7,495.3
			c-12.9,7.4-12.9,26,0,33.5l122.5,70.7c1.8,1,3.6,1.7,5.4,2.1c1.6,6.8,3.4,13.5,5.4,20.2c-1.4,1.3-2.6,2.7-3.6,4.5L68.6,748.7
			c-7.4,12.9,1.9,29,16.7,29h141.4c2.1,0,4-0.3,5.9-0.9c4.8,5,9.6,9.9,14.7,14.7c-0.6,1.8-0.9,3.8-0.9,5.9v141.4
			c0,14.9,16.1,24.2,29,16.7l122.5-70.7c1.8-1,3.2-2.3,4.5-3.6c6.6,2,13.4,3.8,20.2,5.4c0.4,1.8,1.1,3.7,2.1,5.4l70.7,122.5
			c7.4,12.9,26,12.9,33.5,0l70.7-122.5c1-1.8,1.7-3.6,2.1-5.4c6.8-1.6,13.5-3.4,20.2-5.4c1.3,1.4,2.7,2.6,4.5,3.6l122.5,70.7
			c12.9,7.4,29-1.9,29-16.7V797.3c0-2.1-0.3-4-0.9-5.9c5-4.8,9.9-9.6,14.7-14.7c1.8,0.6,3.8,0.9,5.9,0.9h141.4
			c14.9,0,24.2-16.1,16.7-29l-70.7-122.5c-1-1.8-2.3-3.2-3.6-4.5c2-6.6,3.8-13.4,5.4-20.2c1.8-0.4,3.7-1.1,5.4-2.1l122.5-70.7
			C1027.2,521.3,1027.2,502.7,1014.3,495.3z M512,867.7c-196.4,0-355.7-159.3-355.7-355.7c0-196.4,159.3-355.7,355.7-355.7
			S867.7,315.6,867.7,512C867.7,708.4,708.4,867.7,512,867.7z"/>
	</g>
	<g>
		<path fill="#D14229" d="M512,879.5c-202.5,0-367.3-164.7-367.3-367.2C144.7,309.8,309.5,145,512,145
			c202.5,0,367.3,164.7,367.3,367.2C879.3,714.7,714.5,879.5,512,879.5z M512,168.1c-189.8,0-344.1,154.4-344.1,344.2
			S322.2,856.4,512,856.4S856.1,702,856.1,512.2S701.8,168.1,512,168.1z"/>
	</g>
</g>
</svg>
