<?xml version="1.0" encoding="utf-8"?>
<?xml-stylesheet  href="../css/svg.css" type="text/css" ?>
<!-- Generator: Adobe Illustrator 18.0.0, SVG Export Plug-In . SVG Version: 6.00 Build 0)  -->
<!DOCTYPE svg PUBLIC "-//W3C//DTD SVG 1.1//EN" "http://www.w3.org/Graphics/SVG/1.1/DTD/svg11.dtd">
<svg version="1.1" id="图层_1" xmlns="http://www.w3.org/2000/svg" xmlns:xlink="http://www.w3.org/1999/xlink" x="0px" y="0px"
	 viewBox="0 0 1024 1024" enable-background="new 0 0 1024 1024" xml:space="preserve">
<g class="loadone">
	<path fill="#FF7822" d="M488.7,142.7l-141.2,37.8c-14.9,4-28.5-9.6-24.5-24.5l37.8-141.2c4-14.9,22.5-19.8,33.4-9l103.4,103.4
		C508.5,120.1,503.6,138.7,488.7,142.7z"/>
	<path fill="#FFED01" d="M307.2,203.8L203.8,307.2c-10.9,10.9-29.4,5.9-33.4-9L132.5,157c-4-14.9,9.6-28.4,24.5-24.5l141.2,37.8
		C313.1,174.3,318,192.9,307.2,203.8z"/>
	<path fill="#FFE603" d="M180.5,347.5l-37.8,141.2c-4,14.9-22.5,19.8-33.4,9L5.9,394.3c-10.9-10.9-5.9-29.4,9-33.4L156,323
		C170.9,319.1,184.5,332.6,180.5,347.5z"/>
	<path fill="#FFDC05" d="M142.7,535.3l37.8,141.2c4,14.9-9.6,28.4-24.5,24.5L14.8,663.1c-14.9-4-19.8-22.5-9-33.4l103.4-103.4
		C120.1,515.5,138.7,520.4,142.7,535.3z"/>
	<path fill="#FFD108" d="M203.8,716.8l103.4,103.4c10.9,10.9,5.9,29.4-9,33.4L157,891.5c-14.9,4-28.4-9.6-24.5-24.5l37.8-141.2
		C174.3,710.9,192.9,706,203.8,716.8z"/>
	<path fill="#FFC40B" d="M347.5,843.5l141.2,37.8c14.9,4,19.8,22.6,9,33.4l-103.4,103.4c-10.9,10.9-29.4,5.9-33.4-9L323,868
		C319.1,853.1,332.6,839.5,347.5,843.5z"/>
	<path fill="#FFB70E" d="M535.3,881.3l141.2-37.8c14.9-4,28.5,9.6,24.5,24.5l-37.8,141.2c-4,14.9-22.5,19.8-33.4,9L526.3,914.8
		C515.5,903.9,520.4,885.3,535.3,881.3z"/>
	<path fill="#FFAA12" d="M716.8,820.2l103.4-103.4c10.9-10.9,29.4-5.9,33.4,9L891.5,867c4,14.9-9.6,28.5-24.5,24.5l-141.2-37.8
		C710.9,849.7,706,831.1,716.8,820.2z"/>
	<path fill="#FF9E16" d="M843.5,676.5l37.8-141.2c4-14.9,22.5-19.8,33.4-9l103.4,103.4c10.9,10.9,5.9,29.4-9,33.4L868,701
		C853.1,704.9,839.5,691.4,843.5,676.5z"/>
	<path fill="#FF931A" d="M881.3,488.7l-37.8-141.2c-4-14.9,9.6-28.4,24.5-24.5l141.2,37.8c14.9,4,19.8,22.5,9,33.4L914.8,497.7
		C903.9,508.5,885.3,503.6,881.3,488.7z"/>
	<path fill="#FF891C" d="M820.2,307.2L716.8,203.8c-10.9-10.9-5.9-29.4,9-33.4L867,132.5c14.9-4,28.5,9.6,24.5,24.5l-37.8,141.2
		C849.7,313.1,831.1,318,820.2,307.2z"/>
	<path fill="#FF7F20" d="M676.5,180.5l-141.2-37.8c-14.9-4-19.8-22.5-9-33.4L629.7,5.9c10.9-10.9,29.4-5.9,33.4,9L701,156
		C704.9,170.9,691.4,184.5,676.5,180.5z"/>
</g>
<g class="loadtow">
	<path fill="#FFED01" d="M556.9,289.3h-89.8c-9.4,0-15.3-10.2-10.6-18.4l44.9-77.7c4.7-8.2,16.5-8.2,21.2,0l44.9,77.7
		C572.2,279,566.3,289.3,556.9,289.3z"/>
	<path fill="#FF7822" d="M439.5,296.7l-77.7,44.9c-8.2,4.7-18.4-1.2-18.4-10.6v-89.8c0-9.4,10.2-15.3,18.4-10.6l77.7,44.9
		C447.7,280.1,447.7,291.9,439.5,296.7z"/>
	<path fill="#FF7F20" d="M341.5,361.8l-44.9,77.7c-4.7,8.2-16.5,8.2-21.2,0l-44.9-77.7c-4.7-8.2,1.2-18.4,10.6-18.4h89.8
		C340.4,343.4,346.3,353.6,341.5,361.8z"/>
	<path fill="#FF891C" d="M289.3,467.1v89.8c0,9.4-10.2,15.3-18.4,10.6l-77.7-44.9c-8.2-4.7-8.2-16.5,0-21.2l77.7-44.9
		C279,451.8,289.3,457.7,289.3,467.1z"/>
	<path fill="#FF931A" d="M296.7,584.5l44.9,77.7c4.7,8.2-1.2,18.4-10.6,18.4h-89.8c-9.4,0-15.3-10.2-10.6-18.4l44.9-77.7
		C280.1,576.3,291.9,576.3,296.7,584.5z"/>
	<path fill="#FF9E16" d="M361.8,682.5l77.7,44.9c8.2,4.7,8.2,16.5,0,21.2l-77.7,44.9c-8.2,4.7-18.4-1.2-18.4-10.6v-89.8
		C343.4,683.6,353.6,677.7,361.8,682.5z"/>
	<path fill="#FFAA12" d="M467.1,734.7h89.8c9.4,0,15.3,10.2,10.6,18.4l-44.9,77.7c-4.7,8.2-16.5,8.2-21.2,0l-44.9-77.7
		C451.8,745,457.7,734.7,467.1,734.7z"/>
	<path fill="#FFB70E" d="M584.5,727.3l77.7-44.9c8.2-4.7,18.4,1.2,18.4,10.6v89.8c0,9.4-10.2,15.3-18.4,10.6l-77.7-44.9
		C576.3,743.9,576.3,732.1,584.5,727.3z"/>
	<path fill="#FFC40B" d="M682.5,662.2l44.9-77.7c4.7-8.2,16.5-8.2,21.2,0l44.9,77.7c4.7,8.2-1.2,18.4-10.6,18.4h-89.8
		C683.6,680.6,677.7,670.4,682.5,662.2z"/>
	<path fill="#FFD108" d="M734.7,556.9v-89.8c0-9.4,10.2-15.3,18.4-10.6l77.7,44.9c8.2,4.7,8.2,16.5,0,21.2l-77.7,44.9
		C745,572.2,734.7,566.3,734.7,556.9z"/>
	<path fill="#FFDC05" d="M727.3,439.5l-44.9-77.7c-4.7-8.2,1.2-18.4,10.6-18.4h89.8c9.4,0,15.3,10.2,10.6,18.4l-44.9,77.7
		C743.9,447.7,732.1,447.7,727.3,439.5z"/>
	<path fill="#FFE603" d="M662.2,341.5l-77.7-44.9c-8.2-4.7-8.2-16.5,0-21.2l77.7-44.9c8.2-4.7,18.4,1.2,18.4,10.6v89.8
		C680.6,340.4,670.4,346.3,662.2,341.5z"/>
</g>
</svg>
