<?xml version="1.0" encoding="utf-8"?>
<!-- Generator: Adobe Illustrator 18.0.0, SVG Export Plug-In . SVG Version: 6.00 Build 0)  -->
<!DOCTYPE svg PUBLIC "-//W3C//DTD SVG 1.1//EN" "http://www.w3.org/Graphics/SVG/1.1/DTD/svg11.dtd">
<svg version="1.1" id="图层_1" xmlns="http://www.w3.org/2000/svg" xmlns:xlink="http://www.w3.org/1999/xlink" x="0px" y="0px"
	 viewBox="0 0 1024 320" enable-background="new 0 0 1024 320" xml:space="preserve">
<g>
	<path d="M61.1,273.3c-1.6-0.5-3.5-0.8-5.7-0.8c-2.7,15.1-5.5,25.4-8.5,30.8c-0.8-0.8-2.5-3.5-5.1-7.9c-2.1-3-3.5-4.6-4.1-4.6
		c-1.2,0-3.1,1.8-5.7,5.3c-3.6,4.6-5.5,6.9-5.5,6.9c-1.4-1.6-3.5-7.3-6.5-17.1c-2.7-10-4-14.9-4-14.9c-2.2,0.2-4.1,0.7-5.7,1.5
		c1.7,10.6,4.1,20,7.3,28.5c3.4,8,5.8,11.9,7.3,11.9c1.3,0,5.4-4.3,12.2-12.9c5.2,8.8,8.8,13.1,10.6,13.1c2.1,0,4.7-4.1,7.8-12.4
		C58.4,292.6,60.3,283.4,61.1,273.3z"/>
	<path d="M116.7,273.3c-1.6-0.5-3.5-0.8-5.7-0.8c-2.7,15.1-5.5,25.4-8.5,30.8c-0.8-0.8-2.5-3.5-5.1-7.9c-2.1-3-3.5-4.6-4.1-4.6
		c-1.2,0-3.1,1.8-5.7,5.3c-3.6,4.6-5.5,6.9-5.5,6.9c-1.4-1.6-3.5-7.3-6.5-17.1c-2.7-10-4-14.9-4-14.9c-2.2,0.2-4.1,0.7-5.7,1.5
		c1.7,10.6,4.1,20,7.3,28.5c3.4,8,5.8,11.9,7.3,11.9c1.3,0,5.4-4.3,12.2-12.9c5.2,8.8,8.8,13.1,10.6,13.1c2.1,0,4.7-4.1,7.8-12.4
		C114,292.6,115.9,283.4,116.7,273.3z"/>
	<path d="M172.2,273.3c-1.6-0.5-3.5-0.8-5.7-0.8c-2.7,15.1-5.5,25.4-8.5,30.8c-0.8-0.8-2.5-3.5-5.1-7.9c-2.1-3-3.5-4.6-4.1-4.6
		c-1.2,0-3.1,1.8-5.7,5.3c-3.6,4.6-5.5,6.9-5.5,6.9c-1.4-1.6-3.5-7.3-6.5-17.1c-2.7-10-4-14.9-4-14.9c-2.2,0.2-4.1,0.7-5.7,1.5
		c1.7,10.6,4.1,20,7.3,28.5c3.4,8,5.8,11.9,7.3,11.9c1.3,0,5.4-4.3,12.2-12.9c5.2,8.8,8.8,13.1,10.6,13.1c2.1,0,4.7-4.1,7.8-12.4
		C169.5,292.6,171.4,283.4,172.2,273.3z"/>
	<path d="M191.8,304.4c-4-2.8-7.4-4.3-10.1-4.5c-2.3,3.6-3.7,6.7-4.1,9.3c2.6,2.2,5.9,3.7,10,4.8c0.7-0.9,1.6-2.2,2.6-4.1
		C191.2,307.5,191.8,305.6,191.8,304.4z"/>
	<path d="M233.5,277.1c-5.5-4.3-11.8-6.5-19-6.7c-4.9,0-8.6,0.8-11.1,2.2c-3.7,2-5.6,4.8-5.7,8.5c0,4.6,2.7,8,8.3,10.4
		c5.9,2.4,9.3,3.9,10.3,4.3c3.4,1.8,5.1,3.9,5.1,6.2c-0.3,3.2-2.7,4.9-7.1,4.9c-3.8,0-7.9-1.8-12.1-5.5c-0.9,0.9-1.5,1.5-1.8,1.8
		c-0.8,1.1-1.3,2-1.5,2.6c4.5,5,9.6,7.5,15.3,7.5c9.1-0.2,13.8-3.8,14.4-11.2c0-4.4-2.4-7.9-7.1-10.4c-1.6-0.8-5.4-2.5-11.2-5.1
		c-3.5-1.4-5.2-3.2-5.2-5.4c0-3.1,3-4.7,9.1-4.7c5.6,0,11,1.9,16.3,5.5c0.8-0.5,1.4-1.2,1.9-2.2
		C233.1,278.7,233.5,277.8,233.5,277.1z"/>
	<path d="M282,310.9c-0.2-1.7-0.8-7.8-2-18.1c-1.5-11.8-2.7-19.1-3.7-21.9c-2.6,0.1-4.6,0.5-5.8,1.3c0.3,4.1,1.3,12.9,3,26.5
		c-4.6,5.1-9.6,7.6-15.1,7.6c-4.6,0-8-1.3-10-4.1c-1.7-2-2.5-5.3-2.5-9.7c0-4.4,1-11.1,3.1-19.8c-1.5-1-3.4-1.6-5.7-1.8
		c-3,9.3-4.4,16.6-4.4,22.1c0,6.1,1.4,10.7,4,13.8c3,4.1,8.2,6.1,15.3,6.1c6.4-0.1,11.8-2.7,16.5-7.9c0.4,2.8,0.9,5.1,1.3,7
		C277.7,312,279.7,311.7,282,310.9z"/>
	<path d="M333,289.5c0-5-1.4-9.4-4.2-12.9c-3.3-3.8-7.5-5.8-12.4-5.8c-6.6,0.2-11.8,2.1-15.9,5.8c0,2.3,0.9,4.1,2.7,5.3
		c5-2.6,9.1-4,12.4-4.2c2.9,0,5.4,1.1,7.5,3.2c1.8,2,2.7,5.1,2.7,9.3c0,4.2-0.9,11.3-2.6,21.1c1.2,0.9,3.2,1.4,6.2,1.4
		C331.6,307.2,332.8,299.6,333,289.5z M297.5,308.9c0-5.4-0.3-12.7-0.7-22.3c-0.4-8-0.7-13-1-15.4c-1.4-0.2-2.5-0.3-3.1-0.3
		c-1,0-2.1,0.2-3.3,0.5c0,4.6,0,9.9,0.2,15.8c0.3,14.9,0.8,23.3,1.4,25.2c0.8,0.3,1.9,0.4,3.3,0.4c1.3,0,2.3-0.2,3.1-0.6
		C297.4,312,297.5,310.9,297.5,308.9z"/>
	<path d="M375.4,274.7c-0.1-1-0.2-2-0.2-2.9c-3.2-0.3-8.1-0.5-14.8-0.5c0-10,0.2-15.3,0.6-16.2c0-1.1,3.8-2.2,11.3-3.3
		c0-2.2-0.3-4.1-0.8-5.8c-10.4,0.6-15.9,1.9-16.7,4.1c-1.6,1.6-2.3,8.7-2.3,21.2c-7.9,0-12.2,0.2-13.1,0.6c-0.3,0.8-0.4,1.8-0.4,3
		c0,1.4,0.1,2.3,0.4,2.8c3.9,0.6,8.3,0.8,13.2,0.8c0,12.9,0.4,24.4,1.2,34.2c0.2,0,1.3,0.1,3.3,0.1c1.2,0,2.3-0.1,3.5-0.3
		c-0.2-6.4-0.2-17.7-0.2-34.1c3.4,0,6.5-0.1,9.4-0.3c3-0.2,4.8-0.5,5.5-0.8C375.3,276.8,375.4,275.9,375.4,274.7z"/>
	<path d="M391,286.7c0-23.2-0.3-36.5-0.8-40.1c-1-0.4-2-0.6-3.1-0.6c-1.6,0-2.7,0.2-3.3,0.5c-0.4,14.6-0.5,26.1-0.5,34.4
		c0,18.9,0.4,29.5,1.3,31.5c0.9,0.3,1.9,0.5,3,0.5c1,0,1.9-0.2,2.9-0.7C390.8,311.2,391,302.7,391,286.7z"/>
	<path d="M443.3,292.7c0-6.6-2.4-11.8-7.1-16c-1.8,0.7-3.2,2-4.3,3.9c3,3.6,4.5,7.6,4.5,11.8c0,2.4-0.7,4.6-2.1,6.7
		c-1.6,2.2-3.3,3.9-5.1,5.1c0.7,1.2,1.2,2,1.4,2.4c0.2,0.5,0.7,1.3,1.5,2.5c3-1,5.7-3.1,8-6.3C442.2,299.7,443.3,296.3,443.3,292.7z
		 M431.5,273.5c-2.8-2-6.2-3-10.2-3c-6.6,0.2-11.9,2.5-16,7c-3.6,4.3-5.4,9.3-5.4,14.9s1.9,10.7,5.8,14.8c3.8,4,8.7,5.9,14.7,5.9
		c2.8,0,5.2-0.6,7.1-1.9c-0.2-2-0.7-3.7-1.7-5.2c-1.8,0.6-3.6,0.9-5.4,0.9c-3.8,0-6.9-1.4-9.5-4.2c-2.6-3-3.8-6.5-3.8-10.3
		c0-3.9,1.1-7.3,3.4-10.3c2.9-3.6,6.5-5.4,10.9-5.5c2.5,0,5,0.7,7.6,2c0.4-0.4,0.8-1.1,1.3-2.1C431,275.7,431.4,274.7,431.5,273.5z"
		/>
	<path d="M499.3,273.3c-1.6-0.5-3.5-0.8-5.7-0.8c-2.7,15.1-5.5,25.4-8.5,30.8c-0.8-0.8-2.5-3.5-5.1-7.9c-2.1-3-3.5-4.6-4.1-4.6
		c-1.2,0-3.1,1.8-5.7,5.3c-3.6,4.6-5.5,6.9-5.5,6.9c-1.4-1.6-3.5-7.3-6.5-17.1c-2.7-10-4-14.9-4-14.9c-2.2,0.2-4.1,0.7-5.7,1.5
		c1.7,10.6,4.1,20,7.3,28.5c3.4,8,5.8,11.9,7.3,11.9c1.3,0,5.4-4.3,12.2-12.9c5.2,8.8,8.8,13.1,10.6,13.1c2.1,0,4.7-4.1,7.8-12.4
		C496.6,292.6,498.5,283.4,499.3,273.3z"/>
	<path d="M547.4,290.6c-0.1-5.9-2.2-10.8-6.2-14.7c-3.8-3.5-8.8-5.3-15.1-5.3c-6.7,0-12.2,2.6-16.6,7.7c-3.2,3.9-4.7,8.9-4.7,15
		c0,5.6,1.8,10.3,5.5,13.8c4.2,3.8,10.1,5.7,17.4,5.8c4.6,0,9-1.2,13.2-3.7c-0.4-2.3-1-4.1-2-5.4c-3.7,1.7-7.4,2.5-11,2.5
		c-8,0-13-3-15.2-9.2c18.5-0.8,30-1.9,34.1-3.4C547.2,293.7,547.4,292.6,547.4,290.6z M540,289.1c-15.3,1.3-24.6,2.1-27.9,2.3
		c0.3-4.2,1.6-7.5,4-10c2.9-3,6.3-4.5,10.1-4.5c5.1,0,9,1.8,11.5,5.2C539.1,284.3,539.9,286.7,540,289.1z"/>
	<path d="M588.6,272.2c-3-0.8-5.9-1.3-8.8-1.3c-6.6,0-12.6,2.2-18.3,6.6l-0.8-6.4c-1.3-0.1-2.2-0.2-2.8-0.2c-0.8,0-2,0.2-3.6,0.4
		c0,5.6,0.3,12.6,0.9,21.1c0.8,10,1.6,16.7,2.5,20.5c3.3,0,5.3-0.2,6-0.6c0-0.4,0.1-1.3,0.1-2.7c0-2.4-0.6-10.9-1.8-25.6
		c6.2-4.4,12.7-6.7,19.7-6.7c1.4,0,3.5,0.2,6.3,0.5C588.4,276.8,588.6,274.9,588.6,272.2z"/>
	<path d="M639.3,292.3c-0.6-13.6-6.7-20.8-18.4-21.4c-5.6,0.1-10.3,1.7-14,4.7c0,1.6,0.6,3.4,1.9,5.2c4.1-1.9,7.8-2.9,11.1-3.1
		c7.8,0.3,11.9,5,12.4,14.1c-0.2,9.3-4.5,13.9-12.9,14c-2.3,0-5.6-1-10-3c-0.7,0.8-1.1,1.5-1.3,2.2c-0.3,0.6-0.6,1.7-0.9,3.3
		c4,3,8.2,4.4,12.4,4.4C632.3,312.5,638.9,305.7,639.3,292.3z M603.6,303.8c0-6.5-0.2-16.5-0.5-30.2c-0.3-17.3-0.4-26.3-0.4-27.1
		c-1.4-0.3-2.5-0.5-3.4-0.5c-0.6,0-1.7,0.1-3.1,0.2c-0.5,2.3-0.7,11.7-0.7,28.5c0,23.1,0.4,35.6,1.3,37.6c0.1,0.2,1.2,0.3,3.3,0.3
		c0.8,0,1.8-0.2,3.2-0.6C603.5,311.7,603.6,308.9,603.6,303.8z"/>
	<path d="M680.5,272.2c-3-0.8-5.9-1.3-8.8-1.3c-6.6,0-12.6,2.2-18.3,6.6l-0.8-6.4c-1.3-0.1-2.2-0.2-2.8-0.2c-0.8,0-2,0.2-3.6,0.4
		c0,5.6,0.3,12.6,0.9,21.1c0.8,10,1.6,16.7,2.5,20.5c3.3,0,5.3-0.2,6-0.6c0-0.4,0.1-1.3,0.1-2.7c0-2.4-0.6-10.9-1.8-25.6
		c6.2-4.4,12.7-6.7,19.7-6.7c1.4,0,3.5,0.2,6.3,0.5C680.3,276.8,680.5,274.9,680.5,272.2z"/>
	<path d="M728.1,290.6c-0.1-5.9-2.2-10.8-6.2-14.7c-3.8-3.5-8.8-5.3-15.1-5.3c-6.7,0-12.2,2.6-16.6,7.7c-3.2,3.9-4.7,8.9-4.7,15
		c0,5.6,1.8,10.3,5.5,13.8c4.2,3.8,10.1,5.7,17.4,5.8c4.6,0,9-1.2,13.2-3.7c-0.4-2.3-1-4.1-2-5.4c-3.7,1.7-7.4,2.5-11,2.5
		c-8,0-13-3-15.2-9.2c18.5-0.8,30-1.9,34.1-3.4C727.9,293.7,728.1,292.6,728.1,290.6z M720.7,289.1c-15.3,1.3-24.6,2.1-27.9,2.3
		c0.3-4.2,1.6-7.5,4-10c2.9-3,6.3-4.5,10.1-4.5c5.1,0,9,1.8,11.5,5.2C719.8,284.3,720.6,286.7,720.7,289.1z"/>
	<path d="M777.1,309.2c0-4.4-0.2-11.2-0.6-20.3c-0.4-9.4-1-14.9-1.7-16.7c-0.1-0.2-1.1-0.4-3-0.4c-1.4,0.2-2.5,0.4-3.2,0.7
		c0,5.3,0.3,13.6,1.1,25.1c-5.2,5.8-10.4,8.7-15.4,8.7c-3.8,0-6.9-1.2-9.4-3.8c-2.6-2.8-3.8-6.2-3.8-10.2c0-4.5,1.4-8.2,4.3-11
		c2.8-2.5,5.7-3.8,8.8-3.9c3.4,0,6.7,1.4,9.8,4.1c1.4-1,2.4-2.4,3-4.4c-3.2-4.2-7.5-6.3-12.7-6.3c-5.3,0.1-9.9,1.8-13.6,5.2
		c-4.4,4.2-6.6,9.7-6.6,16.2c0,6.4,2.1,11.6,6.5,15.7c3.8,3.2,8.4,4.7,13.7,4.7c5.6,0,11-2.6,16.1-8c0,1.3,0.2,3.8,0.8,7.6
		c1.4,0,3.4,0,5.9-0.1C777,311.1,777.1,310.1,777.1,309.2z"/>
	<path d="M784.1,292.2c0.5,13.4,7.4,20.3,20.7,20.6c4.3,0,8.4-1.4,12.1-4.4c-0.4-1.6-0.7-2.7-0.9-3.3c-0.2-0.7-0.7-1.4-1.3-2.2
		c-4.4,2-7.8,3-10,3c-8.9-0.1-13.3-4.8-13.4-14.1c0.4-9.3,4.8-14,12.9-14.3c3.2,0.2,6.9,1.1,11.1,2.9c1.2-1.8,1.9-3.6,1.9-5.2
		c-3.6-2.9-8.1-4.4-13.2-4.5C791.3,271.3,784.6,278.5,784.1,292.2z M828.6,283.3c0-21.7-0.3-34-0.7-37c-1.4-0.2-2.4-0.3-3.1-0.3
		c-0.8,0-1.8,0.2-3.1,0.4c-0.5,1.2-0.7,12.9-0.7,35.2c0,19.2,0.3,29.5,1,30.8c0.6,0.3,1.7,0.4,3.2,0.4c1.2,0,2.2-0.2,2.9-0.6
		C828.4,308.9,828.6,299.3,828.6,283.3z"/>
	<path d="M850.7,304.4c-4-2.8-7.4-4.3-10.1-4.5c-2.3,3.6-3.7,6.7-4.1,9.3c2.6,2.2,5.9,3.7,10,4.8c0.7-0.9,1.6-2.2,2.6-4.1
		C850.1,307.5,850.7,305.6,850.7,304.4z"/>
	<path d="M895.7,304.7c-1.5-2.7-2.7-4.2-3.6-4.4c-5.4,4-10.2,6-14.4,6c-3,0-6-1.1-9.1-3.3c-3.3-2.8-4.9-6.5-4.9-11.1
		c0.3-9,5-13.9,13.9-14.8c5.8,0.1,10.4,1.9,13.6,5.5c0.6-0.2,1.3-0.6,2.1-1.4c0.2-0.1,0.7-0.7,1.7-1.9c-1.6-2.8-4.1-5-7.5-6.6
		c-3.1-1.4-6.4-2.1-10-2.1c-13.6,1-20.6,8.1-21,21.2c0,6.8,2.3,12,7,15.9c4.3,3.4,9.1,5.1,14.3,5.1
		C884.3,312.9,890.3,310.2,895.7,304.7z"/>
	<path d="M944,292.7c0-6.6-2.4-11.8-7.1-16c-1.8,0.7-3.2,2-4.3,3.9c3,3.6,4.5,7.6,4.5,11.8c0,2.4-0.7,4.6-2.1,6.7
		c-1.6,2.2-3.3,3.9-5.1,5.1c0.7,1.2,1.2,2,1.4,2.4c0.2,0.5,0.7,1.3,1.5,2.5c3-1,5.7-3.1,8-6.3C942.9,299.7,944,296.3,944,292.7z
		 M932.2,273.5c-2.8-2-6.2-3-10.2-3c-6.6,0.2-11.9,2.5-16,7c-3.6,4.3-5.4,9.3-5.4,14.9s1.9,10.7,5.8,14.8c3.8,4,8.7,5.9,14.7,5.9
		c2.8,0,5.2-0.6,7.1-1.9c-0.2-2-0.7-3.7-1.7-5.2c-1.8,0.6-3.6,0.9-5.4,0.9c-3.8,0-6.9-1.4-9.5-4.2c-2.6-3-3.8-6.5-3.8-10.3
		c0-3.9,1.1-7.3,3.4-10.3c2.9-3.6,6.5-5.4,10.9-5.5c2.5,0,5,0.7,7.6,2c0.4-0.4,0.8-1.1,1.3-2.1C931.7,275.7,932.1,274.7,932.2,273.5
		z"/>
	<path d="M1013.5,292.3c0-4.5-0.9-8.2-2.7-11.2c-2.7-4-6.3-6-10.8-6c-4.4,0.1-8.6,2.7-12.7,7.9c-3.8-8.1-8.5-12.1-13.9-12.2
		c-4.6,0.1-8.5,2.5-11.8,7.2c0,0.7,0.3,1.7,1,2.9c0.7,1.3,1.2,2.1,1.5,2.3c3-3.4,6-5.1,9-5.1c4.3,0.1,8.5,5.1,12.4,14.8
		c6.6-6.9,11.4-10.4,14.6-10.5c1.9,0.1,3.6,1.2,5,3.2c0.8,1.8,1.3,4,1.3,6.5c0,3-0.7,9.4-2.1,19.3c0.8,0.9,2.6,1.3,5.6,1.3
		c0.6-0.5,1.5-3.5,2.6-8.9C1013,300.9,1013.4,297.1,1013.5,292.3z M960.3,312v-3c0-4.5-0.2-11-0.5-19.3c-0.5-8.8-1-14.9-1.6-18.5
		c-0.7-0.2-1.8-0.3-3.4-0.3c-0.8,0-1.8,0.2-2.8,0.6c-0.1,0.9-0.1,1.8-0.1,2.8c0,4.9,0.1,10.9,0.4,18c0.4,10.6,1.1,17.3,2,20.4
		c0.4,0,1.5,0.1,3.1,0.1C958.6,312.8,959.5,312.6,960.3,312z"/>
</g>
<g>
	<path d="M146.7,40.7c-31.5,0-61.8,1.5-90.3,4.3c2.8-7.3,5.6-14.9,8.4-22.7c-5.2-1.3-9.9-2.4-14.7-3c-3.9,9.1-6.9,18.2-9.5,27.4
		c-3.5,0.4-6.7,0.9-10.2,1.3c0,4.1,0.4,8.2,1.7,12.1c32-1.9,64.4-3.7,97.7-5c1.3,20.7,1.9,37.4,1.9,49.9c0,24.6-0.6,38.7-1.9,41.9
		c-5.4,0.6-11.5,1.1-18.4,1.1c0,3.2,0.4,6.3,1.3,9.3c6.1,1.3,13.4,1.9,22,1.9c3.9,0,7.1-0.4,9.9-0.9c2.6-4.8,4.1-22.5,4.1-53.4
		C148.9,87.4,148,65.7,146.7,40.7z M7.1,52.3C3.2,52.6,0.9,53,0,53.4c0,31.3,0.6,65.3,2.2,101.8c1.1,0.2,3.5,0.4,7.1,0.4
		c3,0,5.4-0.4,7.1-0.9C16.4,118,15.6,84.1,14,53C12.5,52.6,10.2,52.3,7.1,52.3z M97.5,86.7c-21.6,0-41.7,1.1-60.3,3.2
		c0.9,19,2.8,35,6.3,48c24,0,42.4-1.1,55.3-3.5c0.4-1.3,0.9-8.9,0.9-22.3C99.6,103.3,98.8,94.9,97.5,86.7z M56.2,124.5l-1.7-23.3
		l29.2-1.7l0.9,23.8L56.2,124.5z"/>
	<path d="M262.3,13.4c-0.4,4.3-0.4,8.9-0.4,13.4c23.8,2.2,48.2,3.2,73,3.5c0.9,15.3,1.3,33.7,1.3,55.1c0,6.7-0.2,24.6-0.6,54
		c-9.1,0.4-24,0.6-44.9,0.9c-22.7,0-38.7-0.4-47.8-0.9c-0.4-16.9-0.9-33.9-1.1-51c16.2,2.2,33.7,3.2,52.3,3.2
		c0.9-4.8,1.3-8.9,1.3-12.7c-18.4-2.2-36.3-3.5-53.8-4.3c-0.4-17.3-0.4-34.6-0.4-51.9c-4.3,0-8.6-0.2-13-0.2
		c-1.7,23.6-2.6,47.5-2.6,72.2c0,22.7,0.9,41.7,3,56.8c14.3,1.7,35.2,2.6,62.9,2.6c31.8,0,50.8-0.9,57.3-2.6
		c2.2-7.6,3.5-29.6,3.5-66.1c0-16-0.9-38.9-2.6-69.1C340.5,15,311.6,14.1,262.3,13.4z"/>
	<path d="M435.6,14.7c-0.9,2.2-1.1,4.3-1.1,6.5c0,3.5,0.2,5.8,0.6,6.7c9.1,0.6,19,1.3,30,1.7c0.6,5.2,1.7,10.4,3,15.6
		c4.8,0,9.7-0.4,14.9-1.3c-0.4-4.3-1.1-8.9-1.5-13.6c11.7,0.4,24.2,0.9,38,0.9c-0.6,2.8-1.3,5.8-1.7,8.9c3.5,2.4,8.2,3.5,14,3.5
		c1.3-3,2.6-6.9,4.3-12.1c12.3,0.2,25.7,0.2,40,0.2c0.4-1.5,0.9-3.7,0.9-6.7v-6.1c-12.3-0.6-24.6-1.3-37-1.7c0.9-3.9,1.7-8,3-12.7
		c-3.9-2.2-8.9-3.7-14.5-4.3c-2.2,5-3.9,10.4-5.4,16.4c-14.5-0.4-29-0.9-43.7-1.3c-0.6-3.5-1.3-6.9-1.7-10.6
		c-5.6,0-10.8,0.4-15.6,1.3c0.2,3,0.4,6.1,0.9,9.1C454.2,15,444.9,14.7,435.6,14.7z M430.6,50.4c-0.4,1.7-0.4,3.5-0.4,5.2
		c0,2.2,0,4.3,0.4,6.3c7.8,1.3,22.3,2.8,43.7,5c-4.8,6.3-9.3,12.5-14,18.8c-10.2-3.7-19.9-6.9-29-9.7c-1.9,3.2-3.5,7.1-4.5,11.9
		c7.6,4.3,15.8,7.3,24.6,9.5c-7.3,9.9-14.5,19.7-21.6,29.6c2.2,2.6,5.8,4.5,10.8,5.6c22-22.5,40.4-47.5,54.7-75.2
		C475.2,52.8,453.5,50.4,430.6,50.4z M524.4,49.1c-2.6,5.6-4.8,12.1-6.5,19c-5.2-1.1-10.6-2.4-16-3.7c-1.7,3.5-3.7,7.6-5.8,12.5
		c25.1,8.6,52.5,14.7,82.5,17.7c1.3-5,2.2-9.5,2.2-13.4c-5.8-0.9-11.7-2.2-17.7-3.5c2.2-5.8,4.3-13.6,6.9-23.3
		c-3.9-2.2-8.6-3.5-14.3-4.1c-3,6.9-5.6,15.1-7.8,24.2c-5-0.9-9.9-1.9-14.9-3.2c1.5-4.5,3.2-10.6,5.4-18.2
		C534.6,51,530,49.8,524.4,49.1z M500.4,113.7c-2.2,4.5-4.1,9.1-6.1,13.8c-9.7,1.5-19,3.2-28.1,5c0.2,3.9,1.1,7.8,2.4,11.2
		c6.5-0.4,13.2-0.9,19.7-1.5c-3.5,8.6-6.9,17.9-10.2,27.4c3.5,3,7.6,5,12.7,6.3c6.1-11.9,11.7-23.8,16.6-35.7
		c16.9-1.9,33.7-4.8,50.1-8.2c0-3.7-0.9-7.3-2.4-11.2c-14.5,1.1-28.5,2.4-41.9,4.1c1.5-4.3,3-8.9,4.5-13.4
		c8.6-1.3,17.3-2.8,25.9-4.5c0-3.5-0.9-7.1-2.4-11c-25.9,1.7-49.3,4.8-70.4,9.1c0.2,3.9,1.1,7.3,2.4,10.8
		C482.5,115.4,491.4,114.8,500.4,113.7z M538.3,142.5c-4.5,2.8-8.9,6.1-13.2,9.5c6.5,7.3,13.6,14,21.8,20.5
		c5.6-2.2,9.7-5.4,12.7-9.3C553.2,155.9,546,149.2,538.3,142.5z"/>
	<path d="M812,91.9c-8.4,0.4-16.6,0.6-24.9,0.9c1.7-13.4,3-27,4.3-40.6c5.2,0.2,10.6,0.2,16.2,0.2c0.9-4.8,1.3-9.1,1.3-13.4
		c-5.6-0.2-11.2-0.6-16.6-1.1c0.4-8.6,1.1-17.7,1.5-27c-1.3-0.4-3.2-0.9-6.3-1.3c-2.8,0-5.4,0.2-7.6,0.4c-1.3,8.6-2.4,17.7-3.5,27
		c-15.1-0.6-29.6-1.1-43.4-1.5c-0.9-7.1-1.7-14.5-2.6-22h-6.7c-2.2,0-4.5,0.4-6.7,1.1c0,6.9,0.2,13.8,0.6,20.7
		c-5.6,0-11.2-0.2-16.6-0.2c-0.4,2.2-0.4,4.1-0.4,6.1v7.1c5.6,0.4,11.7,0.9,17.9,1.3c0.9,15.1,2.6,30.3,4.8,45.8
		c-8.2,0.4-16,0.9-23.6,1.3c0,4.3,0.2,8.6,0.9,12.5c38-0.4,75.4-1.7,111.7-4.1c0.2-1.3,0.4-3.7,0.4-7.1
		C812.9,95.8,812.5,93.6,812,91.9z M734.5,50.4c13.4,0.9,26.8,1.3,40.6,1.5c-1.3,13.4-2.2,27-2.8,41.3c-12.3,0.6-24.2,1.1-35.7,1.5
		C736.2,80.4,735.5,65.7,734.5,50.4z M785,123.4c-3.7,2.4-7.3,5.4-10.8,8.9c6.1,9.9,12.5,17.9,19.9,23.6c4.3-3,7.8-5.8,10.6-8.9
		C798.6,138.3,792.1,130.4,785,123.4z M728,120.8c-5.6,10.4-10.6,21.6-15.3,33.7c3.2,2.8,7.3,4.8,12.3,5.8
		c6.9-11.7,12.3-23.3,16.2-35C736.6,123.7,732.3,122.1,728,120.8z M667.2,35.9c-3,10.4-5.8,20.3-8.2,30.3
		c-7.3-3.7-14.9-7.1-22.7-10.2c-1.9,3.5-3.7,7.8-5.4,12.7c6.7,4.5,14.9,8.2,24.9,11.2c-3.9,17.1-6.9,33.3-8.9,48.8
		c1.5,0.9,3.5,1.5,5.6,1.9c5.2,0.9,8,1.3,8,1.3c1.1-4.5,2.2-9.3,3.5-14.3c6.1,2.6,12.7,4.5,19.9,5.4c1.9-4.8,3.2-8.9,3.9-12.3
		c-7.1-2.6-14-5-20.5-7.1c4.5-20.3,8.6-41.7,12.1-64.6C675.2,37.7,671.1,36.6,667.2,35.9z M694.7,62.9c-6.9,4.8-13,9.5-17.9,13.8
		c1.5,3.7,3.9,7.1,7.3,10.6c8.4-5.2,14.5-9.9,18.4-14.3C700.5,69,697.9,65.5,694.7,62.9z"/>
	<path d="M880.7,35.9c-3,10.4-5.8,20.3-8.2,30.3C865.2,62.5,857.8,59,850,56c-2.2,3.5-3.9,7.8-5.6,12.7c6.7,4.5,14.9,8.2,24.9,11.2
		c-3.9,17.1-6.7,33.3-8.6,48.8c1.3,0.9,3.2,1.5,5.4,1.9c5.2,0.9,8,1.3,8,1.3c1.1-4.5,2.2-9.3,3.5-14.3c6.1,2.6,12.7,4.5,19.9,5.4
		c1.9-4.8,3.2-8.9,3.9-12.3c-7.1-2.6-14-5-20.5-7.1c4.5-20.3,8.6-41.7,12.1-64.6C888.9,37.7,884.8,36.6,880.7,35.9z M905.8,61.4
		c-6.9,4.8-13,9.3-17.9,13.6c1.3,3.7,3.9,7.1,7.3,10.6c8.2-5,14.5-9.7,18.4-14.3C911.6,67.3,909,64,905.8,61.4z M977.8,7.4
		c-4.8,0-9.3,0.4-14,1.1c0,5.2,0.4,10.2,1.3,14.9c-14.5-0.4-29-0.9-43.2-1.1c-1.1,4.5-1.5,9.3-1.5,14c33.3,2.2,66.8,3,100.5,3
		c0.9-4.1,1.5-8.4,1.5-13.2c-14-0.9-28.1-1.7-42.4-2.2C979.5,18.9,978.8,13.4,977.8,7.4z M941.7,50.2c-4.8,0.4-9.3,1.3-13.8,2.8
		c1.1,7.8,3.2,15.6,6.3,22.9c4.8,0,9.7-0.9,14.7-3C947.3,65.3,944.9,57.7,941.7,50.2z M992.7,48.9c-6.9,9.5-11.5,19.7-13.6,30.3
		c4.8,2.2,8.9,3.2,11.9,3.2c6.9-7.3,11.5-17.1,14-29.4C1000.7,51.3,996.6,50,992.7,48.9z M915.5,82.6c-1.3,2.6-1.7,5-1.7,7.1
		c0,3.5,0.2,6.1,1.1,7.8c36.5,1.9,72.6,3,108.5,3.2c0.4-2.2,0.6-4.8,0.6-8v-6.3C987.7,85,951.4,83.7,915.5,82.6z M959.6,114.1
		c-0.4,3.9-0.4,8.2-0.4,12.5c9.1,2.4,19,3.9,30.3,4.8c-1.3,7.8-1.7,14.3-1.7,19c-12.5,0-26.1-0.2-41.3-1.1
		c-0.6-11.5-1.5-22.5-2.6-33.3c-4.5,0-9.1,0.4-13.4,0.9c0.4,17.3,1.3,32,3,44.5c10.4,3,22.9,4.8,37.8,4.8c15.8,0,25.5-1.1,29.2-3.2
		c2.8-9.5,4.3-24.4,4.3-44.7C991.4,116.5,976.2,115,959.6,114.1z"/>
</g>
</svg>
