<?xml version="1.0" encoding="utf-8"?>
<!-- Generator: Adobe Illustrator 18.0.0, SVG Export Plug-In . SVG Version: 6.00 Build 0)  -->
<!DOCTYPE svg PUBLIC "-//W3C//DTD SVG 1.1//EN" "http://www.w3.org/Graphics/SVG/1.1/DTD/svg11.dtd">
<svg version="1.1" id="图层_1" xmlns="http://www.w3.org/2000/svg" xmlns:xlink="http://www.w3.org/1999/xlink" x="0px" y="0px"
	 viewBox="0 0 1024 1024" enable-background="new 0 0 1024 1024" xml:space="preserve">
<g>
	<path fill="#003D99" d="M937.9,932.9H86.1C38.6,932.9,0,894.3,0,846.8V234.6c0-47.5,38.6-86.1,86.1-86.1h54.2l43.1-57.4h227.2
		l57.4,57.4h469.8c47.5,0,86.1,38.6,86.1,86.1v612.2C1024,894.3,985.4,932.9,937.9,932.9z M86.1,205.9c-15.8,0-28.7,12.9-28.7,28.7
		v612.2c0,15.8,12.9,28.7,28.7,28.7h851.7c15.8,0,28.7-12.9,28.7-28.7V234.6c0-15.8-12.9-28.7-28.7-28.7H444.3l-57.4-57.4H212.1
		l-43.1,57.4H86.1z"/>
</g>
<g>
	<path fill="#003D99" d="M512,741.7c-126.7,0-229.7-103-229.7-229.7s103-229.7,229.7-229.7s229.7,103,229.7,229.7
		S638.7,741.7,512,741.7z M512,339.7c-95,0-172.3,77.3-172.3,172.3S417,684.3,512,684.3S684.3,607,684.3,512S607,339.7,512,339.7z"
		/>
</g>
<g>
	<circle fill="#003D99" cx="446.6" cy="441.9" r="35.1"/>
</g>
</svg>
